<svg width="96" height="25" viewBox="0 0 96 25" fill="none" xmlns="http://www.w3.org/2000/svg">
<g id="logo" clip-path="url(#clip0_466_1412)">
<path id="Vector" d="M21.1484 15.4287V24.9677H25.7747V18.6155C24.9415 18.0525 24.1303 17.4895 23.341 16.9371C22.601 16.4219 21.8665 15.912 21.1539 15.4287H21.1484Z" fill="black"/>
<g id="Group">
<path id="Vector_2" d="M51.019 2.40599C48.81 0.817931 46.0584 0 43.3067 0C41.1745 0 39.0477 0.483323 37.1731 1.47652C32.8867 3.74973 30.1735 8.54578 30.5078 13.2675C30.5243 13.4905 30.5517 13.7296 30.6832 13.9154C30.7764 14.0482 30.9135 14.1438 31.0505 14.2341C32.8867 15.461 34.8326 16.5286 36.8607 17.4209C34.712 14.7652 34.5531 10.7659 36.488 7.96155C38.4229 5.15721 42.3091 3.77629 45.6582 4.71107C49.0018 5.64585 51.5397 8.82728 51.6164 12.1999C51.6767 14.8396 50.2242 17.4209 48.0097 18.9293C45.5322 20.6129 41.9967 20.8307 39.119 20.2146C38.4832 20.0765 37.8583 19.9012 37.2444 19.6941C33.3252 18.3822 29.4499 15.6894 26.0296 13.31C22.2913 10.7128 19.0628 8.46611 15.8946 7.85532C10.8956 6.89399 7.12449 8.3174 4.83877 9.67708C4.76751 9.71957 4.69626 9.76206 4.625 9.80455V15.546C4.625 15.546 5.65549 14.4041 7.40952 13.4003C9.67331 12.099 12.2276 11.7113 15.0012 12.2424C17.1882 12.662 20.1755 14.7387 23.3383 16.9429C27.0108 19.4976 31.1766 22.3975 35.737 23.9218C37.9021 24.6441 39.9522 25.0053 41.9748 25.0053C42.3859 25.0053 42.8025 24.9894 43.2081 24.9628C44.9073 24.8407 46.5791 24.4529 48.2125 23.8103C53.3869 21.7655 56.7524 16.5711 56.1166 11.1536C55.7165 7.73847 53.8802 4.46675 51.019 2.4113V2.40599Z" fill="black"/>
<path id="Vector_3" d="M63.2164 5.27937C64.721 5.27937 65.9406 4.09754 65.9406 2.63969C65.9406 1.18183 64.721 0 63.2164 0C61.7119 0 60.4922 1.18183 60.4922 2.63969C60.4922 4.09754 61.7119 5.27937 63.2164 5.27937Z" fill="black"/>
</g>
<g id="Group_2">
<path id="Vector_4" d="M25.7747 10.6807V0.0263672H21.1484V7.75953C22.6722 8.58277 24.207 9.59722 25.7747 10.6754V10.6807Z" fill="black"/>
<path id="Vector_5" d="M65.5442 7.97754H60.918V24.9682H65.5442V7.97754Z" fill="black"/>
<path id="Vector_6" d="M83.1342 0.03125H70.2695V24.9675H83.1342C90.238 24.9675 95.9989 19.3854 95.9989 12.502C95.9989 5.61336 90.238 0.03125 83.1342 0.03125ZM91.4001 12.5233C91.4001 16.9475 87.6947 20.5379 83.1287 20.5379H74.8574V4.50862H83.1287C87.6947 4.50862 91.4001 8.09902 91.4001 12.5233Z" fill="black"/>
<path id="Vector_7" d="M4.62624 0.0263672H0V24.9679H4.62624V0.0263672Z" fill="black"/>
</g>
</g>
<defs>
<clipPath id="clip0_466_1412">
<rect width="96" height="25" fill="white"/>
</clipPath>
</defs>
</svg>
