<svg width="38" height="39" viewBox="0 0 38 39" fill="none" xmlns="http://www.w3.org/2000/svg">
<g id="Group 626843">
<path id="Vector" d="M22.7886 26.2644L19.5986 28.4652L9.41756 14.5305L12.6076 12.3297C13.4769 11.7299 13.7608 10.6017 13.2775 9.67949L8.79072 1.1383C8.19578 0.0053608 6.70284 -0.351104 5.63417 0.385073C-0.390229 4.54176 -1.80661 12.6552 2.47124 18.509L13.4434 33.5254C17.7213 39.3792 26.0712 40.7554 32.0956 36.5988C33.1643 35.8626 33.3094 34.3763 32.405 33.4557L25.5847 26.5232C24.8478 25.7746 23.6579 25.6646 22.7886 26.2644Z" fill="white"/>
<path id="Vector_2" d="M36.5318 23C36.4548 23 36.3763 22.992 36.2993 22.9729C35.6995 22.8359 35.3174 22.2004 35.4447 21.5553C36.283 17.331 35.5425 13.0081 33.3579 9.38273C31.1733 5.75741 27.8069 3.2646 23.8791 2.36304C23.2792 2.22606 22.8971 1.59051 23.0245 0.945407C23.1519 0.300303 23.7428 -0.110652 24.3426 0.0263331C33.6497 2.16234 39.6051 12.0444 37.6175 22.0538C37.5064 22.6145 37.0458 23 36.5318 23Z" fill="white"/>
<path id="Vector_3" d="M31.6024 21C31.5202 21 31.4364 20.992 31.3542 20.9728C30.7138 20.8349 30.3058 20.1955 30.4418 19.5464C31.4142 14.926 28.4986 10.3632 23.9385 9.37758C23.2981 9.23815 22.8902 8.6003 23.0261 7.95122C23.1621 7.30215 23.793 6.88867 24.4334 7.0265C30.271 8.28938 34.0073 14.131 32.7598 20.048C32.6412 20.6122 32.1495 21 31.6008 21H31.6024Z" fill="white"/>
</g>
</svg>
