<svg width="40" height="24" viewBox="0 0 40 24" fill="none" xmlns="http://www.w3.org/2000/svg">
<g clip-path="url(#clip0_466_1546)">
<path d="M40.0009 16.118C40.0009 11.7659 36.4115 8.23612 31.986 8.23612C31.1226 8.23612 30.2865 8.36982 29.5047 8.62386C30.0417 5.51523 32.1695 1.69127 38.9132 0.0533893C24.3449 -0.835747 22.3735 11.0172 22.2647 13.23C21.9928 18.7052 24.7392 21.9409 28.0159 23.298C29.8922 24.1804 32.5774 23.9999 32.693 23.9799C36.7854 23.6255 40.0009 20.2495 40.0009 16.1314V16.118Z" fill="#CCCCCC"/>
<path d="M17.7548 16.1179C17.7548 11.7658 14.1654 8.23597 9.73989 8.23597C8.87653 8.23597 8.04036 8.36967 7.25858 8.62371C7.79563 5.50839 9.92344 1.68444 16.6603 0.0465533C2.09883 -0.842583 0.127377 11.0103 0.0186072 13.2232C-0.253317 18.6984 2.49311 21.934 5.7698 23.2911C7.64607 24.1736 10.3313 23.9931 10.4469 23.973C14.5393 23.6187 17.7548 20.2427 17.7548 16.1245V16.1179Z" fill="#CCCCCC"/>
</g>
<defs>
<clipPath id="clip0_466_1546">
<rect width="40" height="24" fill="white"/>
</clipPath>
</defs>
</svg>
