<svg width="62" height="62" viewBox="0 0 62 62" fill="none" xmlns="http://www.w3.org/2000/svg">
<circle cx="31" cy="31" r="31" fill="white"/>
<circle cx="31" cy="31" r="31" fill="white"/>
<path d="M39.2477 41.1655H31.0981C29.5042 41.1655 28.2031 39.8676 28.2031 38.2682V32.8084C28.2031 32.2307 28.6717 31.7617 29.249 31.7617C29.8263 31.7617 30.2949 32.2307 30.2949 32.8084V38.2682C30.2949 38.712 30.6547 39.0721 31.0981 39.0721H39.2477C39.825 39.0721 40.2936 39.541 40.2936 40.1188C40.2936 40.6966 39.825 41.1655 39.2477 41.1655Z" fill="#838383"/>
<path d="M44.1042 41.1654H42.9453C42.368 41.1654 41.8994 40.6964 41.8994 40.1186C41.8994 39.5409 42.368 39.0719 42.9453 39.0719H44.1042C44.5476 39.0719 44.9074 38.7118 44.9074 38.268V29.4713C44.9074 29.0275 44.5476 28.6633 44.1042 28.6633H33.0889C32.5115 28.6633 32.043 28.1943 32.043 27.6166C32.043 27.0388 32.5115 26.5698 33.0889 26.5698H44.1042C45.7023 26.5698 46.9992 27.872 46.9992 29.4713V38.268C46.9992 39.8674 45.7023 41.1654 44.1042 41.1654Z" fill="#838383"/>
<path d="M42.9514 43.9998C42.7255 43.9998 42.4996 43.9286 42.3155 43.782L38.6172 40.9475C38.157 40.5958 38.0734 39.9385 38.4206 39.4821C38.772 39.0257 39.4288 38.9378 39.8848 39.2895L41.9013 40.8345V40.1185C41.9013 39.5407 42.3699 39.0718 42.9472 39.0718C43.5245 39.0718 43.9931 39.5407 43.9931 40.1185V42.953C43.9931 43.3508 43.7672 43.7151 43.4116 43.8909C43.2651 43.9621 43.1062 43.9998 42.9472 43.9998H42.9514Z" fill="#838383"/>
<path d="M30.8975 33.5914H22.7521C22.1748 33.5914 21.7062 33.1224 21.7062 32.5446C21.7062 31.9668 22.1748 31.4979 22.7521 31.4979H30.8975C31.341 31.4979 31.7007 31.1378 31.7007 30.694V21.9015C31.7007 21.4577 31.341 21.0935 30.8975 21.0935H17.895C17.4516 21.0935 17.0918 21.4535 17.0918 21.9015V30.6982C17.0918 31.142 17.4516 31.5021 17.895 31.5021H19.0539C19.6312 31.5021 20.0998 31.971 20.0998 32.5488C20.0998 33.1266 19.6312 33.5955 19.0539 33.5955H17.895C16.2969 33.5955 15 32.2976 15 30.6982V21.9015C15 20.3021 16.2969 19 17.895 19H30.8975C32.4956 19 33.7925 20.3021 33.7925 21.9015V30.6982C33.7925 32.2976 32.4956 33.5955 30.8975 33.5955V33.5914Z" fill="#51A4E4"/>
<path d="M19.0537 36.426C18.8947 36.426 18.7358 36.3884 18.5893 36.3172C18.2337 36.1413 18.0078 35.7771 18.0078 35.3793V32.5448C18.0078 31.967 18.4764 31.498 19.0537 31.498C19.631 31.498 20.0996 31.967 20.0996 32.5448V33.2607L22.1202 31.7158C22.5763 31.3641 23.2373 31.452 23.5845 31.9126C23.9359 32.3731 23.8481 33.0305 23.3879 33.378L19.6854 36.2125C19.5013 36.3549 19.2754 36.426 19.0495 36.426H19.0537Z" fill="#51A4E4"/>
<path d="M24.5435 29.8739C22.5898 29.8739 21 28.2828 21 26.3276C21 24.3723 22.5898 22.7812 24.5435 22.7812C26.4972 22.7812 28.0869 24.3723 28.0869 26.3276C28.0869 28.2828 26.4972 29.8739 24.5435 29.8739ZM24.5435 24.4518C23.5101 24.4518 22.6734 25.2934 22.6734 26.3234C22.6734 27.3533 23.5143 28.1949 24.5435 28.1949C25.5726 28.1949 26.4135 27.3533 26.4135 26.3234C26.4135 25.2934 25.5726 24.4518 24.5435 24.4518Z" fill="#51A4E4"/>
<path d="M27.2902 29.9155C27.0768 29.9155 26.8634 29.8317 26.7003 29.6684L24.4244 27.3908C24.0981 27.0642 24.0981 26.5324 24.4244 26.2059C24.7507 25.8793 25.2821 25.8793 25.6084 26.2059L27.8842 28.4835C28.2105 28.8101 28.2105 29.3419 27.8842 29.6684C27.7211 29.8317 27.5077 29.9155 27.2943 29.9155H27.2902Z" fill="#51A4E4"/>
<path d="M35.251 37.5271C35.1464 37.5271 35.0376 37.5061 34.933 37.4643C34.5063 37.2884 34.3013 36.7986 34.477 36.3715L36.8951 30.4931C37.0206 30.1874 37.3134 29.9865 37.6439 29.9739C37.9828 29.9655 38.2798 30.1498 38.4221 30.447L41.1874 36.1496C41.3882 36.5641 41.2167 37.0665 40.7983 37.2675C40.3842 37.4685 39.8821 37.2968 39.6813 36.8781L37.7318 32.8587L36.0249 37.0079C35.891 37.3303 35.5815 37.5271 35.251 37.5271Z" fill="#838383"/>
<path d="M39.0552 35.9697H36.2898C35.8296 35.9697 35.4531 35.5929 35.4531 35.1323C35.4531 34.6717 35.8296 34.2949 36.2898 34.2949H39.0552C39.5154 34.2949 39.8919 34.6717 39.8919 35.1323C39.8919 35.5929 39.5154 35.9697 39.0552 35.9697Z" fill="#838383"/>
</svg>
