<svg width="62" height="62" viewBox="0 0 62 62" fill="none" xmlns="http://www.w3.org/2000/svg">
<circle cx="31" cy="31" r="31" fill="white"/>
<path d="M40.2327 37.2722H20.5787C19.7065 37.2722 19 36.5657 19 35.6936V22.0376C19 21.1655 19.7065 20.459 20.5787 20.459H34.345C34.8528 20.459 35.2649 20.8711 35.2649 21.3789C35.2649 21.8868 34.8528 22.2989 34.345 22.2989H20.8399V35.4323H39.9714V32.2124C39.9714 31.7046 40.3836 31.2925 40.8914 31.2925C41.3992 31.2925 41.8114 31.7046 41.8114 32.2124V35.6936C41.8114 36.5657 41.1048 37.2722 40.2327 37.2722Z" fill="#838383"/>
<path d="M35.1214 41.8775H25.6973C25.1895 41.8775 24.7773 41.4654 24.7773 40.9576C24.7773 40.4497 25.1895 40.0376 25.6973 40.0376H35.1214C35.6292 40.0376 36.0414 40.4497 36.0414 40.9576C36.0414 41.4654 35.6292 41.8775 35.1214 41.8775Z" fill="#838383"/>
<path d="M28.2676 41.8769C27.7598 41.8769 27.3477 41.4648 27.3477 40.9569V37.9947C27.3477 37.4868 27.7598 37.0747 28.2676 37.0747C28.7754 37.0747 29.1876 37.4868 29.1876 37.9947V40.9569C29.1876 41.4648 28.7754 41.8769 28.2676 41.8769Z" fill="#838383"/>
<path d="M32.7129 41.8769C32.2051 41.8769 31.793 41.4648 31.793 40.9569V37.9947C31.793 37.4868 32.2051 37.0747 32.7129 37.0747C33.2207 37.0747 33.6329 37.4868 33.6329 37.9947V40.9569C33.6329 41.4648 33.2207 41.8769 32.7129 41.8769Z" fill="#838383"/>
<path d="M45.0981 25.8911V24.1456H43.9635C43.8628 23.6924 43.6815 23.2661 43.4399 22.8868L44.279 22.0476L43.0471 20.8157L42.2079 21.6549C41.8286 21.4132 41.4057 21.2319 40.9491 21.1312V20H39.2036V21.1346C38.7505 21.2353 38.3275 21.4166 37.9449 21.6582L37.1057 20.819L35.8704 22.051L36.7129 22.8935C36.4712 23.2728 36.2933 23.6991 36.1893 24.1523H35.0547V25.8978H36.1893C36.29 26.351 36.4679 26.7739 36.7096 27.1566L35.9073 27.9589L37.1426 29.1908L37.9449 28.3885C38.3242 28.6302 38.7505 28.8081 39.2036 28.9122V30.0468H40.9491V28.9122C41.4057 28.8115 41.8253 28.6336 42.2079 28.3885L43.0337 29.2109L44.2656 27.979L43.4432 27.1566C43.6849 26.7773 43.8628 26.351 43.9669 25.8978H45.1015L45.0981 25.8911Z" fill="#51A4E4"/>
<path d="M41.2841 25.0224C41.2841 25.6904 40.7436 26.2308 40.0756 26.2308C39.4076 26.2308 38.8672 25.6904 38.8672 25.0224C38.8672 24.3544 39.4076 23.814 40.0756 23.814C40.7436 23.814 41.2841 24.3544 41.2841 25.0224Z" fill="white"/>
</svg>
