<svg width="62" height="62" viewBox="0 0 62 62" fill="none" xmlns="http://www.w3.org/2000/svg">
<circle cx="31" cy="31" r="31" fill="white"/>
<path d="M36.7483 37.9434L34.0646 35.6078C33.614 35.1708 32.9038 35.1708 32.4668 35.6078L31.6337 36.441C31.4356 36.6254 31.2581 36.7483 31.1283 36.8098C30.5752 37.0147 29.4826 37.1922 28.3286 36.12L26.9014 34.6927C25.7747 33.4771 26.0274 32.3298 26.1776 31.9132C26.2527 31.7425 26.3756 31.5649 26.5463 31.3874L27.3999 30.5337C27.8369 30.0966 27.8369 29.3932 27.4136 28.9493L25.0782 26.2654L25.0577 26.2449C24.8597 26.0537 24.5455 25.9649 24.1836 26.0127C23.8559 26.0537 23.5349 26.204 23.3232 26.4225L22.2033 27.5493L22.176 27.5766C18.8027 31.6127 23.7534 36.6527 23.8081 36.7005L26.3073 39.2C26.3415 39.2342 29.1549 42 32.2619 42C33.3203 42 34.4197 41.679 35.4509 40.8117L36.5776 39.6781C36.7893 39.4664 36.9395 39.1454 36.9873 38.8176C37.0351 38.4625 36.9463 38.1483 36.7483 37.9434Z" fill="#838383"/>
<path d="M33.4333 32.0327C33.3318 32.0327 33.2265 32.0136 33.1289 31.9717C32.8908 31.8727 32.7152 31.6632 32.6645 31.4117L32.3796 29.9602C30.28 29.2707 29 27.663 29 25.6668C29 23.0953 31.7669 21 35.1699 21C38.5729 21 41.3398 23.0953 41.3398 25.6668C41.3398 28.2383 39.3066 29.9945 36.3719 30.2917L33.8587 31.907C33.7299 31.9908 33.5816 32.0327 33.4294 32.0327H33.4333ZM35.1738 22.5277C32.6333 22.5277 30.5649 23.9372 30.5649 25.6706C30.5649 27.103 31.5718 28.2078 33.2538 28.6231C33.5465 28.6955 33.7728 28.9278 33.8274 29.2174L33.9835 30.006L35.6851 28.9126C35.7943 28.8402 35.9231 28.7983 36.0558 28.7907C38.2529 28.6269 39.7866 27.3392 39.7866 25.6668C39.7866 23.9944 37.7183 22.5239 35.1777 22.5239L35.1738 22.5277Z" fill="#51A4E4"/>
<path d="M33.6747 25.8004C33.6747 26.1166 33.4132 26.3681 33.0893 26.3681C32.7654 26.3681 32.5039 26.1128 32.5039 25.8004C32.5039 25.4881 32.7654 25.229 33.0893 25.229C33.4132 25.229 33.6747 25.4842 33.6747 25.8004Z" fill="#51A4E4"/>
<path d="M35.7372 25.8004C35.7372 26.1166 35.4757 26.3681 35.1518 26.3681C34.8279 26.3681 34.5664 26.1128 34.5664 25.8004C34.5664 25.4881 34.8279 25.229 35.1518 25.229C35.4757 25.229 35.7372 25.4842 35.7372 25.8004Z" fill="#51A4E4"/>
<path d="M37.7997 25.8004C37.7997 26.1166 37.5382 26.3681 37.2143 26.3681C36.8904 26.3681 36.6289 26.1128 36.6289 25.8004C36.6289 25.4881 36.8904 25.229 37.2143 25.229C37.5382 25.229 37.7997 25.4842 37.7997 25.8004Z" fill="#51A4E4"/>
</svg>
