<svg width="90" height="90" viewBox="0 0 90 90" fill="none" xmlns="http://www.w3.org/2000/svg">
<rect width="90" height="90" fill="#F8F9FF"/>
<mask id="mask0_466_1679" style="mask-type:luminance" maskUnits="userSpaceOnUse" x="35" y="29" width="55" height="49">
<path d="M76.6325 29.0449H48.1984C41.2278 29.0449 35.5859 34.6653 35.5859 41.6094V55.4975C35.5859 62.4416 41.2278 68.062 48.1984 68.062H65.4306L74.5475 77.1443C75.3243 77.9181 76.6325 77.3683 76.6325 76.289V68.062C83.6031 68.062 89.245 62.4416 89.245 55.4975V41.6094C89.245 34.6653 83.6031 29.0449 76.6325 29.0449Z" fill="white"/>
</mask>
<g mask="url(#mask0_466_1679)">
<path d="M76.6325 29.0449H48.1984C41.2278 29.0449 35.5859 34.6653 35.5859 41.6094V55.4975C35.5859 62.4416 41.2278 68.062 48.1984 68.062H65.4306L74.5475 77.1443C75.3243 77.9181 76.6325 77.3683 76.6325 76.289V68.062C83.6031 68.062 89.245 62.4416 89.245 55.4975V41.6094C89.245 34.6653 83.6031 29.0449 76.6325 29.0449Z" fill="url(#paint0_linear_466_1679)"/>
<g style="mix-blend-mode:multiply">
<path d="M76.6325 29.0459H48.1984C41.2278 29.0459 35.5859 34.6663 35.5859 41.6104V55.4985C35.5859 62.4426 41.2278 68.063 48.1984 68.063H65.4306L74.5475 77.1453C75.3243 77.9191 76.6325 77.3693 76.6325 76.29V68.063C83.6031 68.063 89.245 62.4426 89.245 55.4985V41.6104C89.245 34.6663 83.6031 29.0459 76.6325 29.0459Z" fill="#79A8E7"/>
<path d="M76.6325 28.9443H48.1984C41.2278 28.9443 35.5859 34.5648 35.5859 41.5088V55.397C35.5859 62.341 41.2278 67.9614 48.1984 67.9614H65.4306L74.5475 77.0437C75.3243 77.8175 76.6325 77.2677 76.6325 76.1884V67.9614C83.6031 67.9614 89.245 62.341 89.245 55.397V41.5088C89.245 34.5648 83.6031 28.9443 76.6325 28.9443Z" fill="#81ADE9"/>
<path d="M76.6325 28.8623H48.1984C41.2278 28.8623 35.5859 34.4827 35.5859 41.4268V55.3149C35.5859 62.259 41.2278 67.8794 48.1984 67.8794H65.4306L74.5475 76.9617C75.3243 77.7355 76.6325 77.1857 76.6325 76.1064V67.8794C83.6031 67.8794 89.245 62.259 89.245 55.3149V41.4268C89.245 34.4827 83.6031 28.8623 76.6325 28.8623Z" fill="#8AB3EA"/>
<path d="M76.6325 28.7607H48.1984C41.2278 28.7607 35.5859 34.3812 35.5859 41.3252V55.2134C35.5859 62.1574 41.2278 67.7778 48.1984 67.7778H65.4306L74.5475 76.8601C75.3243 77.6339 76.6325 77.0841 76.6325 76.0048V67.7778C83.6031 67.7778 89.245 62.1574 89.245 55.2134V41.3252C89.245 34.3812 83.6031 28.7607 76.6325 28.7607Z" fill="#92B8EC"/>
<path d="M76.6325 28.6592H48.1984C41.2278 28.6592 35.5859 34.2796 35.5859 41.2237V55.1118C35.5859 62.0559 41.2278 67.6763 48.1984 67.6763H65.4306L74.5475 76.7585C75.3243 77.5324 76.6325 76.9825 76.6325 75.9033V67.6763C83.6031 67.6763 89.245 62.0559 89.245 55.1118V41.2237C89.245 34.2796 83.6031 28.6592 76.6325 28.6592Z" fill="#9BBEED"/>
<path d="M76.6325 28.5771H48.1984C41.2278 28.5771 35.5859 34.1976 35.5859 41.1416V55.0298C35.5859 61.9738 41.2278 67.5942 48.1984 67.5942H65.4306L74.5475 76.6765C75.3243 77.4503 76.6325 76.9005 76.6325 75.8212V67.5942C83.6031 67.5942 89.245 61.9738 89.245 55.0298V41.1416C89.245 34.1976 83.6031 28.5771 76.6325 28.5771Z" fill="#A3C3EF"/>
<path d="M76.6325 28.4756H48.1984C41.2278 28.4756 35.5859 34.096 35.5859 41.0401V54.9282C35.5859 61.8723 41.2278 67.4927 48.1984 67.4927H65.4306L74.5475 76.575C75.3243 77.3488 76.6325 76.799 76.6325 75.7197V67.4927C83.6031 67.4927 89.245 61.8723 89.245 54.9282V41.0401C89.245 34.096 83.6031 28.4756 76.6325 28.4756Z" fill="#ABC9F0"/>
<path d="M76.6325 28.374H48.1984C41.2278 28.374 35.5859 33.9944 35.5859 40.9385V54.8266C35.5859 61.7707 41.2278 67.3911 48.1984 67.3911H65.4306L74.5475 76.4734C75.3243 77.2472 76.6325 76.6974 76.6325 75.6181V67.3911C83.6031 67.3911 89.245 61.7707 89.245 54.8266V40.9385C89.245 33.9944 83.6031 28.374 76.6325 28.374Z" fill="#B4CEF2"/>
<path d="M76.6325 28.2725H48.1984C41.2278 28.2725 35.5859 33.8929 35.5859 40.8369V54.7251C35.5859 61.6691 41.2278 67.2896 48.1984 67.2896H65.4306L74.5475 76.3718C75.3243 77.1457 76.6325 76.5958 76.6325 75.5166V67.2896C83.6031 67.2896 89.245 61.6691 89.245 54.7251V40.8369C89.245 33.8929 83.6031 28.2725 76.6325 28.2725Z" fill="#BCD3F3"/>
<path d="M76.6325 28.1904H48.1984C41.2278 28.1904 35.5859 33.8108 35.5859 40.7549V54.643C35.5859 61.5871 41.2278 67.2075 48.1984 67.2075H65.4306L74.5475 76.2898C75.3243 77.0636 76.6325 76.5138 76.6325 75.4345V67.2075C83.6031 67.2075 89.245 61.5871 89.245 54.643V40.7549C89.245 33.8108 83.6031 28.1904 76.6325 28.1904Z" fill="#C4D9F4"/>
<path d="M76.6325 28.0889H48.1984C41.2278 28.0889 35.5859 33.7093 35.5859 40.6534V54.5415C35.5859 61.4855 41.2278 67.106 48.1984 67.106H65.4306L74.5475 76.1882C75.3243 76.9621 76.6325 76.4122 76.6325 75.333V67.106C83.6031 67.106 89.245 61.4855 89.245 54.5415V40.6534C89.245 33.7093 83.6031 28.0889 76.6325 28.0889Z" fill="#CDDEF6"/>
<path d="M76.6325 27.9873H48.1984C41.2278 27.9873 35.5859 33.6077 35.5859 40.5518V54.4399C35.5859 61.384 41.2278 67.0044 48.1984 67.0044H65.4306L74.5475 76.0867C75.3243 76.8605 76.6325 76.3107 76.6325 75.2314V67.0044C83.6031 67.0044 89.245 61.384 89.245 54.4399V40.5518C89.245 33.6077 83.6031 27.9873 76.6325 27.9873Z" fill="#D5E4F8"/>
<path d="M76.6325 27.9053H48.1984C41.2278 27.9053 35.5859 33.5257 35.5859 40.4698V54.3579C35.5859 61.302 41.2278 66.9224 48.1984 66.9224H65.4306L74.5475 76.0046C75.3243 76.7785 76.6325 76.2286 76.6325 75.1494V66.9224C83.6031 66.9224 89.245 61.302 89.245 54.3579V40.4698C89.245 33.5257 83.6031 27.9053 76.6325 27.9053Z" fill="#DEE9F9"/>
<path d="M76.6325 27.8037H48.1984C41.2278 27.8037 35.5859 33.4241 35.5859 40.3682V54.2563C35.5859 61.2004 41.2278 66.8208 48.1984 66.8208H65.4306L74.5475 75.9031C75.3243 76.6769 76.6325 76.1271 76.6325 75.0478V66.8208C83.6031 66.8208 89.245 61.2004 89.245 54.2563V40.3682C89.245 33.4241 83.6031 27.8037 76.6325 27.8037Z" fill="#E6EFFB"/>
<path d="M76.6325 27.7021H48.1984C41.2278 27.7021 35.5859 33.3226 35.5859 40.2666V54.1548C35.5859 61.0988 41.2278 66.7192 48.1984 66.7192H65.4306L74.5475 75.8015C75.3243 76.5753 76.6325 76.0255 76.6325 74.9462V66.7192C83.6031 66.7192 89.245 61.0988 89.245 54.1548V40.2666C89.245 33.3226 83.6031 27.7021 76.6325 27.7021Z" fill="#EEF4FC"/>
<path d="M76.6325 27.5996H48.1984C41.2278 27.5996 35.5859 33.22 35.5859 40.1641V54.0522C35.5859 60.9963 41.2278 66.6167 48.1984 66.6167H65.4306L74.5475 75.699C75.3243 76.4728 76.6325 75.923 76.6325 74.8437V66.6167C83.6031 66.6167 89.245 60.9963 89.245 54.0522V40.1641C89.245 33.22 83.6031 27.5996 76.6325 27.5996Z" fill="#F7FAFE"/>
<path d="M76.6325 27.5186H48.1984C41.2278 27.5186 35.5859 33.139 35.5859 40.083V53.9712C35.5859 60.9152 41.2278 66.5357 48.1984 66.5357H65.4306L74.5475 75.6179C75.3243 76.3917 76.6325 75.8419 76.6325 74.7626V66.5357C83.6031 66.5357 89.245 60.9152 89.245 53.9712V40.083C89.245 33.139 83.6031 27.5186 76.6325 27.5186Z" fill="white"/>
</g>
<g style="mix-blend-mode:screen">
<path d="M76.6325 29.0449H48.1984C41.2278 29.0449 35.5859 34.6653 35.5859 41.6094V55.4975C35.5859 62.4416 41.2278 68.062 48.1984 68.062H65.4306L74.5475 77.1443C75.3243 77.9181 76.6325 77.3683 76.6325 76.289V68.062C83.6031 68.062 89.245 62.4416 89.245 55.4975V41.6094C89.245 34.6653 83.6031 29.0449 76.6325 29.0449Z" fill="#475BA9"/>
<path d="M76.6325 29.0859H48.1984C41.2278 29.0859 35.5859 34.7064 35.5859 41.6504V55.5386C35.5859 62.4826 41.2278 68.103 48.1984 68.103H65.4306L74.5475 77.1853C75.3243 77.9591 76.6325 77.4093 76.6325 76.33V68.103C83.6031 68.103 89.245 62.4826 89.245 55.5386V41.6504C89.245 34.7064 83.6031 29.0859 76.6325 29.0859Z" fill="#475BA9"/>
<path d="M76.6325 29.1064H48.1984C41.2278 29.1064 35.5859 34.7269 35.5859 41.6709V55.5591C35.5859 62.5031 41.2278 68.1235 48.1984 68.1235H65.4306L74.5475 77.2058C75.3243 77.9796 76.6325 77.4298 76.6325 76.3505V68.1235C83.6031 68.1235 89.245 62.5031 89.245 55.5591V41.6709C89.245 34.7269 83.6031 29.1064 76.6325 29.1064Z" fill="#475BA9"/>
<path d="M76.6325 29.1465H48.1984C41.2278 29.1465 35.5859 34.7669 35.5859 41.711V55.5991C35.5859 62.5432 41.2278 68.1636 48.1984 68.1636H65.4306L74.5475 77.2459C75.3243 78.0197 76.6325 77.4699 76.6325 76.3906V68.1636C83.6031 68.1636 89.245 62.5432 89.245 55.5991V41.711C89.245 34.7669 83.6031 29.1465 76.6325 29.1465Z" fill="#475BA9"/>
<path d="M76.6325 29.167H48.1984C41.2278 29.167 35.5859 34.7874 35.5859 41.7315V55.6196C35.5859 62.5637 41.2278 68.1841 48.1984 68.1841H65.4306L74.5475 77.2664C75.3243 78.0402 76.6325 77.4904 76.6325 76.4111V68.1841C83.6031 68.1841 89.245 62.5637 89.245 55.6196V41.7315C89.245 34.7874 83.6031 29.167 76.6325 29.167Z" fill="#475BA9"/>
<path d="M76.6325 29.208H48.1984C41.2278 29.208 35.5859 34.8284 35.5859 41.7725V55.6606C35.5859 62.6047 41.2278 68.2251 48.1984 68.2251H65.4306L74.5475 77.3074C75.3243 78.0812 76.6325 77.5314 76.6325 76.4521V68.2251C83.6031 68.2251 89.245 62.6047 89.245 55.6606V41.7725C89.245 34.8284 83.6031 29.208 76.6325 29.208Z" fill="#475BA9"/>
<path d="M76.6325 29.2285H48.1984C41.2278 29.2285 35.5859 34.8489 35.5859 41.793V55.6811C35.5859 62.6252 41.2278 68.2456 48.1984 68.2456H65.4306L74.5475 77.3279C75.3243 78.1017 76.6325 77.5519 76.6325 76.4726V68.2456C83.6031 68.2456 89.245 62.6252 89.245 55.6811V41.793C89.245 34.8489 83.6031 29.2285 76.6325 29.2285Z" fill="#475BA9"/>
<path d="M76.6325 29.2686H48.1984C41.2278 29.2686 35.5859 34.889 35.5859 41.833V55.7212C35.5859 62.6652 41.2278 68.2857 48.1984 68.2857H65.4306L74.5475 77.3679C75.3243 78.1417 76.6325 77.5919 76.6325 76.5126V68.2857C83.6031 68.2857 89.245 62.6652 89.245 55.7212V41.833C89.245 34.889 83.6031 29.2686 76.6325 29.2686Z" fill="#475BA9"/>
<path d="M76.6325 29.3096H48.1984C41.2278 29.3096 35.5859 34.93 35.5859 41.8741V55.7622C35.5859 62.7063 41.2278 68.3267 48.1984 68.3267H65.4306L74.5475 77.4089C75.3243 78.1828 76.6325 77.6329 76.6325 76.5537V68.3267C83.6031 68.3267 89.245 62.7063 89.245 55.7622V41.8741C89.245 34.93 83.6031 29.3096 76.6325 29.3096Z" fill="#475BA9"/>
<path d="M76.6325 29.3301H48.1984C41.2278 29.3301 35.5859 34.9505 35.5859 41.8946V55.7827C35.5859 62.7268 41.2278 68.3472 48.1984 68.3472H65.4306L74.5475 77.4295C75.3243 78.2033 76.6325 77.6534 76.6325 76.5742V68.3472C83.6031 68.3472 89.245 62.7268 89.245 55.7827V41.8946C89.245 34.9505 83.6031 29.3301 76.6325 29.3301Z" fill="#475BA9"/>
<path d="M76.6325 29.3711H48.1984C41.2278 29.3711 35.5859 34.9915 35.5859 41.9356V55.8237C35.5859 62.7678 41.2278 68.3882 48.1984 68.3882H65.4306L74.5475 77.4705C75.3243 78.2443 76.6325 77.6945 76.6325 76.6152V68.3882C83.6031 68.3882 89.245 62.7678 89.245 55.8237V41.9356C89.245 34.9915 83.6031 29.3711 76.6325 29.3711Z" fill="#475BA9"/>
<path d="M76.6325 29.3906H48.1984C41.2278 29.3906 35.5859 35.011 35.5859 41.9551V55.8432C35.5859 62.7873 41.2278 68.4077 48.1984 68.4077H65.4306L74.5475 77.49C75.3243 78.2638 76.6325 77.714 76.6325 76.6347V68.4077C83.6031 68.4077 89.245 62.7873 89.245 55.8432V41.9551C89.245 35.011 83.6031 29.3906 76.6325 29.3906Z" fill="#475BA9"/>
<path d="M76.6325 29.4316H48.1984C41.2278 29.4316 35.5859 35.0521 35.5859 41.9961V55.8843C35.5859 62.8283 41.2278 68.4487 48.1984 68.4487H65.4306L74.5475 77.531C75.3243 78.3048 76.6325 77.755 76.6325 76.6757V68.4487C83.6031 68.4487 89.245 62.8283 89.245 55.8843V41.9961C89.245 35.0521 83.6031 29.4316 76.6325 29.4316Z" fill="#475BA9"/>
<path d="M76.6325 29.4521H48.1984C41.2278 29.4521 35.5859 35.0726 35.5859 42.0166V55.9048C35.5859 62.8488 41.2278 68.4692 48.1984 68.4692H65.4306L74.5475 77.5515C75.3243 78.3253 76.6325 77.7755 76.6325 76.6962V68.4692C83.6031 68.4692 89.245 62.8488 89.245 55.9048V42.0166C89.245 35.0726 83.6031 29.4521 76.6325 29.4521Z" fill="#475BA9"/>
<path d="M76.6325 29.4932H48.1984C41.2278 29.4932 35.5859 35.1136 35.5859 42.0576V55.9458C35.5859 62.8898 41.2278 68.5103 48.1984 68.5103H65.4306L74.5475 77.5925C75.3243 78.3664 76.6325 77.8165 76.6325 76.7373V68.5103C83.6031 68.5103 89.245 62.8898 89.245 55.9458V42.0576C89.245 35.1136 83.6031 29.4932 76.6325 29.4932Z" fill="#475BA9"/>
<path d="M76.6325 29.5332H48.1984C41.2278 29.5332 35.5859 35.1536 35.5859 42.0977V55.9858C35.5859 62.9299 41.2278 68.5503 48.1984 68.5503H65.4306L74.5475 77.6326C75.3243 78.4064 76.6325 77.8566 76.6325 76.7773V68.5503C83.6031 68.5503 89.245 62.9299 89.245 55.9858V42.0977C89.245 35.1536 83.6031 29.5332 76.6325 29.5332Z" fill="#475BA9"/>
<path d="M76.6325 29.5537H48.1984C41.2278 29.5537 35.5859 35.1741 35.5859 42.1182V56.0063C35.5859 62.9504 41.2278 68.5708 48.1984 68.5708H65.4306L74.5475 77.6531C75.3243 78.4269 76.6325 77.8771 76.6325 76.7978V68.5708C83.6031 68.5708 89.245 62.9504 89.245 56.0063V42.1182C89.245 35.1741 83.6031 29.5537 76.6325 29.5537Z" fill="#475BA9"/>
<path d="M76.6325 29.6152H48.1984C41.2278 29.6152 35.5859 35.2357 35.5859 42.1797V56.0679C35.5859 63.0119 41.2278 68.6323 48.1984 68.6323H65.4306L74.5475 77.7146C75.3243 78.4884 76.6325 77.9386 76.6325 76.8593V68.6323C83.6031 68.6323 89.245 63.0119 89.245 56.0679V42.1797C89.245 35.2357 83.6031 29.6152 76.6325 29.6152Z" fill="#43559E"/>
<path d="M76.6325 29.6758H48.1984C41.2278 29.6758 35.5859 35.2962 35.5859 42.2403V56.1284C35.5859 63.0725 41.2278 68.6929 48.1984 68.6929H65.4306L74.5475 77.7752C75.3243 78.549 76.6325 77.9991 76.6325 76.9199V68.6929C83.6031 68.6929 89.245 63.0725 89.245 56.1284V42.2403C89.245 35.2962 83.6031 29.6758 76.6325 29.6758Z" fill="#3E5094"/>
<path d="M76.6325 29.7373H48.1984C41.2278 29.7373 35.5859 35.3577 35.5859 42.3018V56.1899C35.5859 63.134 41.2278 68.7544 48.1984 68.7544H65.4306L74.5475 77.8367C75.3243 78.6105 76.6325 78.0607 76.6325 76.9814V68.7544C83.6031 68.7544 89.245 63.134 89.245 56.1899V42.3018C89.245 35.3577 83.6031 29.7373 76.6325 29.7373Z" fill="#3A4A89"/>
<path d="M76.6325 29.7988H48.1984C41.2278 29.7988 35.5859 35.4192 35.5859 42.3633V56.2514C35.5859 63.1955 41.2278 68.8159 48.1984 68.8159H65.4306L74.5475 77.8982C75.3243 78.672 76.6325 78.1222 76.6325 77.0429V68.8159C83.6031 68.8159 89.245 63.1955 89.245 56.2514V42.3633C89.245 35.4192 83.6031 29.7988 76.6325 29.7988Z" fill="#35447F"/>
<path d="M76.6325 29.8389H48.1984C41.2278 29.8389 35.5859 35.4593 35.5859 42.4034V56.2915C35.5859 63.2355 41.2278 68.856 48.1984 68.856H65.4306L74.5475 77.9382C75.3243 78.7121 76.6325 78.1622 76.6325 77.083V68.856C83.6031 68.856 89.245 63.2355 89.245 56.2915V42.4034C89.245 35.4593 83.6031 29.8389 76.6325 29.8389Z" fill="#313F74"/>
<path d="M76.6325 29.9004H48.1984C41.2278 29.9004 35.5859 35.5208 35.5859 42.4649V56.353C35.5859 63.2971 41.2278 68.9175 48.1984 68.9175H65.4306L74.5475 77.9998C75.3243 78.7736 76.6325 78.2238 76.6325 77.1445V68.9175C83.6031 68.9175 89.245 63.2971 89.245 56.353V42.4649C89.245 35.5208 83.6031 29.9004 76.6325 29.9004Z" fill="#2C396A"/>
<path d="M76.6325 29.9609H48.1984C41.2278 29.9609 35.5859 35.5814 35.5859 42.5254V56.4136C35.5859 63.3576 41.2278 68.978 48.1984 68.978H65.4306L74.5475 78.0603C75.3243 78.8341 76.6325 78.2843 76.6325 77.205V68.978C83.6031 68.978 89.245 63.3576 89.245 56.4136V42.5254C89.245 35.5814 83.6031 29.9609 76.6325 29.9609Z" fill="#28335F"/>
<path d="M76.6325 30.0225H48.1984C41.2278 30.0225 35.5859 35.6429 35.5859 42.5869V56.4751C35.5859 63.4191 41.2278 69.0396 48.1984 69.0396H65.4306L74.5475 78.1218C75.3243 78.8957 76.6325 78.3458 76.6325 77.2665V69.0396C83.6031 69.0396 89.245 63.4191 89.245 56.4751V42.5869C89.245 35.6429 83.6031 30.0225 76.6325 30.0225Z" fill="#242E55"/>
<path d="M76.6325 30.083H48.1984C41.2278 30.083 35.5859 35.7034 35.5859 42.6475V56.5356C35.5859 63.4797 41.2278 69.1001 48.1984 69.1001H65.4306L74.5475 78.1824C75.3243 78.9562 76.6325 78.4064 76.6325 77.3271V69.1001C83.6031 69.1001 89.245 63.4797 89.245 56.5356V42.6475C89.245 35.7034 83.6031 30.083 76.6325 30.083Z" fill="#1F284A"/>
<path d="M76.6325 30.1445H48.1984C41.2278 30.1445 35.5859 35.7649 35.5859 42.709V56.5971C35.5859 63.5412 41.2278 69.1616 48.1984 69.1616H65.4306L74.5475 78.2439C75.3243 79.0177 76.6325 78.4679 76.6325 77.3886V69.1616C83.6031 69.1616 89.245 63.5412 89.245 56.5971V42.709C89.245 35.7649 83.6031 30.1445 76.6325 30.1445Z" fill="#1B223F"/>
<path d="M76.6325 30.2061H48.1984C41.2278 30.2061 35.5859 35.8265 35.5859 42.7705V56.6587C35.5859 63.6027 41.2278 69.2232 48.1984 69.2232H65.4306L74.5475 78.3054C75.3243 79.0793 76.6325 78.5294 76.6325 77.4501V69.2232C83.6031 69.2232 89.245 63.6027 89.245 56.6587V42.7705C89.245 35.8265 83.6031 30.2061 76.6325 30.2061Z" fill="#161C35"/>
<path d="M76.6325 30.2666H48.1984C41.2278 30.2666 35.5859 35.887 35.5859 42.8311V56.7192C35.5859 63.6633 41.2278 69.2837 48.1984 69.2837H65.4306L74.5475 78.366C75.3243 79.1398 76.6325 78.59 76.6325 77.5107V69.2837C83.6031 69.2837 89.245 63.6633 89.245 56.7192V42.8311C89.245 35.887 83.6031 30.2666 76.6325 30.2666Z" fill="#12172A"/>
<path d="M76.6325 30.3076H48.1984C41.2278 30.3076 35.5859 35.928 35.5859 42.8721V56.7602C35.5859 63.7043 41.2278 69.3247 48.1984 69.3247H65.4306L74.5475 78.407C75.3243 79.1808 76.6325 78.631 76.6325 77.5517V69.3247C83.6031 69.3247 89.245 63.7043 89.245 56.7602V42.8721C89.245 35.928 83.6031 30.3076 76.6325 30.3076Z" fill="#0D1120"/>
<path d="M76.6325 30.3682H48.1984C41.2278 30.3682 35.5859 35.9886 35.5859 42.9326V56.8208C35.5859 63.7648 41.2278 69.3853 48.1984 69.3853H65.4306L74.5475 78.4675C75.3243 79.2414 76.6325 78.6915 76.6325 77.6123V69.3853C83.6031 69.3853 89.245 63.7648 89.245 56.8208V42.9326C89.245 35.9886 83.6031 30.3682 76.6325 30.3682Z" fill="#090B15"/>
<path d="M76.6325 30.4297H48.1984C41.2278 30.4297 35.5859 36.0501 35.5859 42.9942V56.8823C35.5859 63.8264 41.2278 69.4468 48.1984 69.4468H65.4306L74.5475 78.5291C75.3243 79.3029 76.6325 78.7531 76.6325 77.6738V69.4468C83.6031 69.4468 89.245 63.8264 89.245 56.8823V42.9942C89.245 36.0501 83.6031 30.4297 76.6325 30.4297Z" fill="#04060B"/>
<path d="M76.6325 30.4912H48.1984C41.2278 30.4912 35.5859 36.1116 35.5859 43.0557V56.9438C35.5859 63.8879 41.2278 69.5083 48.1984 69.5083H65.4306L74.5475 78.5906C75.3243 79.3644 76.6325 78.8146 76.6325 77.7353V69.5083C83.6031 69.5083 89.245 63.8879 89.245 56.9438V43.0557C89.245 36.1116 83.6031 30.4912 76.6325 30.4912Z" fill="black"/>
</g>
<g style="mix-blend-mode:multiply">
<path opacity="0.4" d="M60.8521 13.3652H17.9658C8.29695 13.3652 0.488281 21.1646 0.488281 30.7967V52.5452C0.488281 62.157 8.31739 69.9563 17.9658 69.9563V81.6859C17.9658 83.1725 19.7647 83.9056 20.8072 82.867L33.7671 69.9563H60.8521C70.5006 69.9563 78.3297 62.157 78.3297 52.5452V30.7967C78.3297 21.1849 70.5006 13.3856 60.8521 13.3856V13.3652Z" fill="white"/>
<path opacity="0.44" d="M60.3011 13.5282H17.7827C8.21609 13.5282 0.46875 21.2461 0.46875 30.7763V52.3416C0.46875 61.8719 8.21609 69.6102 17.8032 69.6102V81.2379C17.8032 82.7041 19.5816 83.4372 20.6241 82.3987L33.4614 69.6102H60.3011C69.8678 69.6102 77.6356 61.8923 77.6356 52.3416V30.7763C77.6356 21.2461 69.8882 13.5078 60.3011 13.5078V13.5282Z" fill="#F9FAFD"/>
<path opacity="0.48" d="M59.7462 13.6709H17.6162C8.13133 13.6709 0.445312 21.3277 0.445312 30.7765V52.1585C0.445312 61.6074 8.13133 69.2642 17.6162 69.2642V80.7901C17.6162 82.2359 19.3742 82.969 20.4167 81.9508L33.1518 69.2642H59.7667C69.2515 69.2642 76.9375 61.6074 76.9375 52.1585V30.7765C76.9375 21.3277 69.2515 13.6709 59.7667 13.6709H59.7462Z" fill="#F3F4FA"/>
<path opacity="0.51" d="M59.1952 13.8135H17.4331C8.03003 13.8135 0.425781 21.4092 0.425781 30.7766V51.9549C0.425781 61.3223 8.05047 68.918 17.4536 68.918V80.3421C17.4536 81.788 19.1911 82.5007 20.2132 81.4825L32.8256 68.918H59.1952C68.5983 68.918 76.223 61.3223 76.223 51.9549V30.7766C76.223 21.4092 68.5983 13.8135 59.1952 13.8135Z" fill="#ECEFF8"/>
<path opacity="0.55" d="M58.6451 13.9561H17.2714C7.95009 13.9561 0.386719 21.4907 0.386719 30.7766V51.7717C0.386719 61.0576 7.92965 68.5719 17.251 68.5719V79.8941C17.251 81.3196 18.9885 82.0324 19.9902 81.0345L32.5004 68.5719H58.6451C67.9664 68.5719 75.5094 61.0576 75.5094 51.7717V30.7766C75.5094 21.4907 67.9664 13.9764 58.6451 13.9764V13.9561Z" fill="#E6EAF5"/>
<path opacity="0.59" d="M58.0941 14.119H17.0884C7.86923 14.119 0.367188 21.5722 0.367188 30.7563V51.5681C0.367188 60.7725 7.84879 68.2257 17.0884 68.2257V79.4462C17.0884 80.8513 18.8055 81.564 19.8071 80.5662L32.1947 68.2257H58.0941C67.3337 68.2257 74.8153 60.7725 74.8153 51.5681V30.7563C74.8153 21.5518 67.3337 14.0986 58.0941 14.0986V14.119Z" fill="#E0E4F3"/>
<path opacity="0.62" d="M57.5596 14.2617H16.9218C7.76403 14.2617 0.34375 21.6538 0.34375 30.7564V51.3646C0.34375 60.4673 7.76403 67.8593 16.9014 67.8593V78.978C16.9014 80.3831 18.598 81.0755 19.5997 80.098L31.885 67.8593H57.5392C66.6765 67.8593 74.0968 60.4673 74.0968 51.3646V30.7564C74.0968 21.6538 66.6765 14.2617 57.5392 14.2617H57.5596Z" fill="#DADFF0"/>
<path opacity="0.66" d="M57.0086 14.4033H16.7388C7.68317 14.4033 0.324219 21.7343 0.324219 30.7555V51.1804C0.324219 60.2016 7.66273 67.5326 16.7388 67.5326V78.5494C16.7388 79.9341 18.415 80.6265 19.4166 79.649L31.5793 67.5326H57.0086C66.0642 67.5326 73.4232 60.2219 73.4232 51.1804V30.7555C73.4232 21.7343 66.0846 14.4033 57.0086 14.4033Z" fill="#D4D9EE"/>
<path opacity="0.7" d="M56.4576 14.5459H16.5762C7.58187 14.5459 0.304688 21.7954 0.304688 30.7555V50.9768C0.304688 59.9165 7.58187 67.166 16.5557 67.166V78.0811C16.5557 79.4658 18.2319 80.1378 19.1927 79.1807L31.2532 67.166H56.4371C65.411 67.166 72.6882 59.9165 72.6882 50.9768V30.7555C72.6882 21.8158 65.411 14.5663 56.4371 14.5663L56.4576 14.5459Z" fill="#CED4EC"/>
<path opacity="0.74" d="M55.9066 14.7088H16.3931C7.50102 14.7088 0.285156 21.8769 0.285156 30.7352V50.7732C0.285156 59.6315 7.50102 66.8199 16.3931 66.8199V77.6331C16.3931 78.9975 18.0489 79.6695 19.0096 78.7124L30.9475 66.8199H55.9066C64.7986 66.8199 72.0145 59.6315 72.0145 50.7732V30.7352C72.0145 21.8769 64.7986 14.6885 55.9066 14.6885V14.7088Z" fill="#C7CFE9"/>
<path opacity="0.78" d="M55.3517 14.8516H16.2061C7.41626 14.8516 0.261719 21.9585 0.261719 30.7354V50.5901C0.261719 59.3669 7.39582 66.4739 16.2061 66.4739V77.1853C16.2061 78.5293 17.8414 79.2013 18.8022 78.2645L30.6378 66.4739H55.3517C64.162 66.4739 71.2961 59.3669 71.2961 50.5901V30.7354C71.2961 21.9585 64.162 14.8516 55.3517 14.8516Z" fill="#C1C9E7"/>
<path opacity="0.81" d="M54.8007 14.9941H16.0435C7.31496 14.9941 0.242188 22.04 0.242188 30.7354V50.3865C0.242188 59.0818 7.31496 66.1277 16.0435 66.1277V76.7373C16.0435 78.0813 17.6584 78.7329 18.6191 77.7962L30.3321 66.1277H54.8007C63.5292 66.1277 70.602 59.0818 70.602 50.3865V30.7354C70.602 22.04 63.5292 14.9941 54.8007 14.9941Z" fill="#BBC4E4"/>
<path opacity="0.85" d="M54.2496 15.1367H15.8604C7.2341 15.1367 0.222656 22.1215 0.222656 30.7354V50.2032C0.222656 58.8171 7.2341 65.7816 15.8604 65.7816V76.2893C15.8604 77.613 17.4753 78.285 18.4156 77.3482L30.006 65.8019H54.2496C62.8964 65.8019 69.8874 58.8171 69.8874 50.2236V30.7558C69.8874 22.1419 62.876 15.1774 54.2496 15.1774V15.1367Z" fill="#B5BFE2"/>
<path opacity="0.89" d="M53.6986 15.2997H15.6978C7.13281 15.2997 0.203125 22.203 0.203125 30.7151V49.9996C0.203125 58.5321 7.13281 65.4354 15.6978 65.4354V75.8413C15.6978 77.1446 17.2923 77.8166 18.2121 76.8799L29.7003 65.4354H53.6986C62.2636 65.4354 69.1933 58.5321 69.1933 49.9996V30.7151C69.1933 22.1826 62.2636 15.2793 53.6986 15.2793V15.2997Z" fill="#AFB9DF"/>
<path opacity="0.93" d="M53.1437 15.4424H15.5108C7.04805 15.4424 0.179688 22.2846 0.179688 30.7153V49.7962C0.179688 58.2268 7.04805 65.069 15.5108 65.069V75.3731C15.5108 76.6764 17.0848 77.3281 18.0047 76.4117L29.3702 65.0894H53.1437C61.6065 65.0894 68.4749 58.2472 68.4749 49.8165V30.7356C68.4749 22.305 61.6065 15.4627 53.1437 15.4627V15.4424Z" fill="#A8B4DD"/>
<path opacity="0.96" d="M52.6131 15.585H15.3482C6.96719 15.585 0.160156 22.3661 0.160156 30.7153V49.6129C0.160156 57.9621 6.96719 64.7433 15.3482 64.7433V74.9455C15.3482 76.2285 16.9018 76.8801 17.8216 75.9637L29.0849 64.7433H52.6131C60.9942 64.7433 67.8012 57.9621 67.8012 49.6129V30.7153C67.8012 22.3661 60.9942 15.585 52.6131 15.585Z" fill="#A2AEDA"/>
<path d="M52.0621 15.7275H15.1652C6.86589 15.7275 0.140625 22.4476 0.140625 30.7153V49.4297C0.140625 57.6974 6.86589 64.3971 15.1652 64.3971V74.4976C15.1652 75.7601 16.6983 76.4118 17.6181 75.5158L28.7588 64.4175H52.0417C60.341 64.4175 67.0662 57.7178 67.0662 49.45V30.7357C67.0662 22.468 60.341 15.7683 52.0417 15.7683L52.0621 15.7275Z" fill="#9CA9D8"/>
</g>
</g>
<mask id="mask1_466_1679" style="mask-type:luminance" maskUnits="userSpaceOnUse" x="1" y="12" width="67" height="61">
<path d="M52.9215 12H16.045C7.72527 12 1 18.6997 1 26.9674V45.6818C1 53.9495 7.72527 60.6492 16.0245 60.6492V70.7497C16.0245 72.0122 17.5576 72.6639 18.4775 71.7679L29.6182 60.6696H52.9011C61.2003 60.6696 67.9256 53.9699 67.9256 45.7021V26.9674C67.9256 18.6997 61.2003 12 52.9011 12H52.9215Z" fill="white"/>
</mask>
<g mask="url(#mask1_466_1679)">
<path d="M52.9215 12H16.045C7.72527 12 1 18.6997 1 26.9674V45.6818C1 53.9495 7.72527 60.6492 16.0245 60.6492V70.7497C16.0245 72.0122 17.5576 72.6639 18.4775 71.7679L29.6182 60.6696H52.9011C61.2003 60.6696 67.9256 53.9699 67.9256 45.7021V26.9674C67.9256 18.6997 61.2003 12 52.9011 12H52.9215Z" fill="url(#paint1_linear_466_1679)"/>
<g style="mix-blend-mode:multiply">
<path d="M52.9215 12H16.045C7.72527 12 1 18.6997 1 26.9674V45.6818C1 53.9495 7.72527 60.6492 16.0245 60.6492V70.7497C16.0245 72.0122 17.5576 72.6639 18.4775 71.7679L29.6182 60.6696H52.9011C61.2003 60.6696 67.9256 53.9699 67.9256 45.7021V26.9674C67.9256 18.6997 61.2003 12 52.9011 12H52.9215Z" fill="#E5ECFB"/>
<path opacity="0.96" d="M53.0231 12H16.1465C7.84727 12 1.10156 18.6997 1.10156 26.9674V45.6818C1.10156 53.9495 7.82683 60.6492 16.1261 60.6492V70.7497C16.1261 72.0122 17.6592 72.6639 18.5791 71.7679L29.7197 60.6696H53.0026C61.3019 60.6696 68.0272 53.9699 68.0272 45.7021V26.9674C68.0272 18.6997 61.3019 12 53.0026 12H53.0231Z" fill="#E7EDFB"/>
<path opacity="0.93" d="M53.1276 12H16.2511C7.95183 12 1.22656 18.6997 1.22656 26.9674V45.6818C1.22656 53.9495 7.95183 60.6492 16.2511 60.6492V70.7497C16.2511 72.0122 17.7842 72.6639 18.7041 71.7679L29.8447 60.6696H53.1276C61.4269 60.6696 68.1522 53.9699 68.1522 45.7021V26.9674C68.1522 18.6997 61.4269 12 53.1276 12Z" fill="#E8EEFB"/>
<path opacity="0.89" d="M53.2496 12H16.3527C8.05339 12 1.32812 18.6997 1.32812 26.9674V45.6818C1.32812 53.9495 8.05339 60.6492 16.3527 60.6492V70.7497C16.3527 72.0122 17.8858 72.6639 18.8056 71.7679L29.9463 60.6696H53.2292C61.5285 60.6696 68.2537 53.9699 68.2537 45.7021V26.9674C68.2537 18.6997 61.5285 12 53.2292 12H53.2496Z" fill="#EAF0FC"/>
<path opacity="0.85" d="M53.3512 12H16.4542C8.15495 12 1.42969 18.6997 1.42969 26.9674V45.6818C1.42969 53.9495 8.15495 60.6492 16.4542 60.6492V70.7497C16.4542 72.0122 17.9873 72.6639 18.9072 71.7679L30.0478 60.6696H53.3308C61.63 60.6696 68.3553 53.9699 68.3553 45.7021V26.9674C68.3553 18.6997 61.63 12 53.3308 12H53.3512Z" fill="#ECF1FC"/>
<path opacity="0.81" d="M53.4528 12H16.5762C8.25652 12 1.53125 18.6997 1.53125 26.9674V45.6818C1.53125 53.9495 8.25652 60.6492 16.5558 60.6492V70.7497C16.5558 72.0122 18.0889 72.6639 19.0088 71.7679L30.1494 60.6696H53.4323C61.7316 60.6696 68.4568 53.9699 68.4568 45.7021V26.9674C68.4568 18.6997 61.7316 12 53.4323 12H53.4528Z" fill="#EDF2FC"/>
<path opacity="0.78" d="M53.5543 12H16.6778C8.37852 12 1.63281 18.6997 1.63281 26.9674V45.6818C1.63281 53.9495 8.35808 60.6492 16.6573 60.6492V70.7497C16.6573 72.0122 18.1905 72.6639 19.1103 71.7679L30.251 60.6696H53.5339C61.8331 60.6696 68.5584 53.9699 68.5584 45.7021V26.9674C68.5584 18.6997 61.8331 12 53.5339 12H53.5543Z" fill="#EFF3FC"/>
<path opacity="0.74" d="M53.6589 12H16.7823C8.48308 12 1.75781 18.6997 1.75781 26.9674V45.6818C1.75781 53.9495 8.48308 60.6492 16.7823 60.6492V70.7497C16.7823 72.0122 18.3155 72.6639 19.2353 71.7679L30.376 60.6696H53.6589C61.9581 60.6696 68.6834 53.9699 68.6834 45.7021V26.9674C68.6834 18.6997 61.9581 12 53.6589 12Z" fill="#F0F4FD"/>
<path opacity="0.7" d="M53.7809 12H16.8839C8.58464 12 1.85938 18.6997 1.85938 26.9674V45.6818C1.85938 53.9495 8.58464 60.6492 16.8839 60.6492V70.7497C16.8839 72.0122 18.417 72.6639 19.3369 71.7679L30.4775 60.6696H53.7604C62.0597 60.6696 68.785 53.9699 68.785 45.7021V26.9674C68.785 18.6997 62.0597 12 53.7604 12H53.7809Z" fill="#F2F6FD"/>
<path opacity="0.66" d="M53.8824 12H16.9855C8.6862 12 1.96094 18.6997 1.96094 26.9674V45.6818C1.96094 53.9495 8.6862 60.6492 16.9855 60.6492V70.7497C16.9855 72.0122 18.5186 72.6639 19.4384 71.7679L30.5791 60.6696H53.862C62.1613 60.6696 68.8865 53.9699 68.8865 45.7021V26.9674C68.8865 18.6997 62.1613 12 53.862 12H53.8824Z" fill="#F4F7FD"/>
<path opacity="0.62" d="M53.984 12H17.1075C8.80821 12 2.0625 18.6997 2.0625 26.9674V45.6818C2.0625 53.9495 8.78777 60.6492 17.087 60.6492V70.7497C17.087 72.0122 18.6201 72.6639 19.54 71.7679L30.6807 60.6696H53.9636C62.2628 60.6696 68.9881 53.9699 68.9881 45.7021V26.9674C68.9881 18.6997 62.2628 12 53.9636 12H53.984Z" fill="#F5F8FE"/>
<path opacity="0.59" d="M54.0886 12H17.212C8.91277 12 2.1875 18.6997 2.1875 26.9674V45.6818C2.1875 53.9495 8.91277 60.6492 17.212 60.6492V70.7497C17.212 72.0122 18.7451 72.6639 19.665 71.7679L30.8057 60.6696H54.0886C62.3878 60.6696 69.1131 53.9699 69.1131 45.7021V26.9674C69.1131 18.6997 62.3878 12 54.0886 12Z" fill="#F7F9FE"/>
<path opacity="0.55" d="M54.1901 12H17.3136C9.01433 12 2.28906 18.6997 2.28906 26.9674V45.6818C2.28906 53.9495 9.01433 60.6492 17.3136 60.6492V70.7497C17.3136 72.0122 18.8467 72.6639 19.7666 71.7679L30.9072 60.6696H54.1901C62.4894 60.6696 69.2147 53.9699 69.2147 45.7021V26.9674C69.2147 18.6997 62.4894 12 54.1901 12Z" fill="#F9FAFE"/>
<path opacity="0.51" d="M54.3121 12H17.4152C9.11589 12 2.39062 18.6997 2.39062 26.9674V45.6818C2.39062 53.9495 9.11589 60.6492 17.4152 60.6492V70.7497C17.4152 72.0122 18.9483 72.6639 19.8681 71.7679L31.0088 60.6696H54.2917C62.591 60.6696 69.3162 53.9699 69.3162 45.7021V26.9674C69.3162 18.6997 62.591 12 54.2917 12H54.3121Z" fill="#FAFBFE"/>
<path opacity="0.48" d="M54.4137 12H17.5167C9.21745 12 2.49219 18.6997 2.49219 26.9674V45.6818C2.49219 53.9495 9.21745 60.6492 17.5167 60.6492V70.7497C17.5167 72.0122 19.0498 72.6639 19.9697 71.7679L31.1103 60.6696H54.3933C62.6925 60.6696 69.4178 53.9699 69.4178 45.7021V26.9674C69.4178 18.6997 62.6925 12 54.3933 12H54.4137Z" fill="#FCFDFF"/>
<path opacity="0.44" d="M54.5153 12H17.6387C9.33946 12 2.59375 18.6997 2.59375 26.9674V45.6818C2.59375 53.9495 9.31902 60.6492 17.6183 60.6492V70.7497C17.6183 72.0122 19.1514 72.6639 20.0713 71.7679L31.2119 60.6696H54.4948C62.7941 60.6696 69.5193 53.9699 69.5193 45.7021V26.9674C69.5193 18.6997 62.7941 12 54.4948 12H54.5153Z" fill="#FDFEFF"/>
<path opacity="0.4" d="M54.6198 12H17.7433C9.44401 12 2.71875 18.6997 2.71875 26.9674V45.6818C2.71875 53.9495 9.44401 60.6492 17.7433 60.6492V70.7497C17.7433 72.0122 19.2764 72.6639 20.1963 71.7679L31.3369 60.6696H54.6198C62.9191 60.6696 69.6443 53.9699 69.6443 45.7021V26.9674C69.6443 18.6997 62.9191 12 54.6198 12Z" fill="white"/>
</g>
<g style="mix-blend-mode:multiply">
<path opacity="0.6" d="M82.9287 20.8583H47.8715C36.2811 20.8583 26.8984 30.2053 26.8984 41.7515V56.943C26.8984 66.4121 34.6049 74.0893 44.1102 74.0893H67.6384L80.0873 86.4909C81.1298 87.5294 82.9287 86.7963 82.9287 85.3098V74.0689C92.434 74.0689 100.14 66.3918 100.14 56.9226V37.9842C100.14 28.5151 92.434 20.8379 82.9287 20.8379V20.8583Z" fill="white"/>
<path opacity="0.63" d="M48.1762 21.7344C36.9538 21.7344 28.3683 30.7963 27.8164 41.9557C27.8164 41.976 27.8164 43.9513 27.8164 43.9717V56.6787C27.8164 65.9443 35.3593 73.4381 44.6398 73.4381H67.3299C67.3299 73.4381 68.7404 74.8025 68.7608 74.8229L73.1557 79.2011C73.2579 79.3029 79.5539 85.3306 79.5539 85.1881C79.6153 85.2492 79.6766 85.2899 79.7175 85.3306C80.7191 86.023 82.2522 85.2899 82.3135 83.9663C82.3953 83.9663 82.4771 73.3974 82.5384 73.3567C91.6144 73.2549 98.9325 65.8832 98.9325 56.8009V42.2815C98.9325 42.2815 98.9325 38.4124 98.9325 38.3513C97.9309 29.2079 91.3691 21.7344 82.1091 21.7344H48.1557H48.1762Z" fill="#FCFDFF"/>
<path opacity="0.65" d="M48.5034 22.5889C37.649 22.5889 29.3088 31.3453 28.7773 42.1178C28.7773 42.1585 28.7773 44.032 28.7773 44.0727V56.3725C28.7773 65.414 36.1363 72.7654 45.2328 72.7654H67.0848C67.0848 72.7654 68.4748 74.0483 68.5157 74.089L72.8289 78.3858C73.0333 78.5894 79.1044 84.1284 79.1249 83.8433C79.1862 83.884 79.2271 83.9247 79.2884 83.9655C80.2083 84.556 81.7005 83.8229 81.8027 82.5807C81.9662 82.5604 82.1093 72.6635 82.2524 72.5821C90.8787 72.3784 97.8289 65.3122 97.8289 56.6168V42.5047C97.8289 42.5047 97.8289 38.7781 97.8084 38.6967C96.8068 29.8384 90.3677 22.6092 81.3939 22.6092H48.5648L48.5034 22.5889Z" fill="#F9FBFF"/>
<path opacity="0.68" d="M48.8316 23.4647C38.3451 23.4647 30.2502 31.8953 29.7188 42.3216C29.7188 42.3827 29.7188 44.134 29.7188 44.2154V56.1079C29.7188 64.9458 36.9142 72.1139 45.7858 72.1139H66.7997C66.7997 72.1139 68.1488 73.3154 68.2102 73.3765L72.4211 77.5714C72.7277 77.8769 78.574 82.9475 78.5945 82.5198C78.6353 82.5606 78.6967 82.6013 78.7376 82.6216C79.5961 83.1104 81.027 82.3569 81.1905 81.1962C81.4358 81.1554 81.6607 71.9306 81.8651 71.8084C90.0622 71.503 96.6443 64.7218 96.6443 56.4338V42.7289C96.6443 42.5863 96.6239 39.1652 96.6035 39.0227C95.6018 30.4495 89.3058 23.4443 80.5773 23.4443H48.852L48.8316 23.4647Z" fill="#F6FAFF"/>
<path opacity="0.7" d="M49.1402 24.3408C39.0012 24.3408 31.1925 32.466 30.6406 42.5257C30.6406 42.6072 30.6406 44.2566 30.6406 44.3585V55.8437C30.6406 64.4779 37.6725 71.4627 46.3193 71.4627H66.4951C66.6177 71.4627 67.8238 72.5827 67.9055 72.6846L72.0347 76.798C72.464 77.2257 78.065 81.8076 78.0854 81.2374C78.1263 81.2781 78.1876 81.2985 78.2285 81.3188C79.0257 81.7057 80.3749 80.9523 80.5997 79.873C80.9268 79.8119 81.2334 71.2795 81.4787 71.0962C89.2465 70.6889 95.4403 64.2132 95.4403 56.312V43.0348C95.4403 42.8312 95.3994 39.6341 95.379 39.4304C94.3569 31.1423 88.2244 24.3815 79.7616 24.3815H49.1402V24.3408Z" fill="#F3F8FF"/>
<path opacity="0.73" d="M49.4645 25.1953C39.6934 25.1953 32.13 33.015 31.5781 42.6878C31.5781 42.7897 31.5781 44.3373 31.5781 44.4391V55.5171C31.5781 63.9273 38.426 70.7696 46.8888 70.7696H66.2265C66.3696 70.7696 67.5143 71.8285 67.6166 71.9303L71.664 75.9624C72.1955 76.4918 77.5716 80.6053 77.592 79.8722C77.6329 79.8926 77.6738 79.9129 77.7147 79.9333C78.4506 80.198 79.7384 79.4649 80.0246 78.4671C80.4334 78.406 80.8013 70.5252 81.1284 70.3216C88.4465 69.8125 94.2723 63.6422 94.2723 56.1076V43.2377C94.2723 42.9933 94.2314 39.9795 94.1905 39.7351C93.1685 31.7117 87.1587 25.2157 78.9616 25.2157H49.4645V25.1953Z" fill="#F0F6FF"/>
<path opacity="0.75" d="M49.7917 26.0713C40.3886 26.0713 33.0705 33.5855 32.5391 42.8918C32.5391 43.014 32.5391 44.4598 32.5391 44.582V55.2527C32.5391 63.4593 39.2234 70.1183 47.4614 70.1183H65.961C66.145 70.1183 67.2284 71.0957 67.351 71.2179L71.2962 75.1481C71.9299 75.7794 77.0812 79.4042 77.1221 78.5489C77.1629 78.5489 77.2038 78.5896 77.2447 78.5896C77.8988 78.7525 79.1458 78.0194 79.4728 77.0827C79.9634 77.0012 80.4131 69.7924 80.8015 69.5481C87.6903 68.9372 93.1278 63.0724 93.1278 55.9247V43.462C93.1278 43.1565 93.0665 40.3667 93.046 40.0816C92.0239 32.3433 86.1572 26.0917 78.2055 26.0917H49.8122L49.7917 26.0713Z" fill="#EDF4FF"/>
<path opacity="0.78" d="M50.1208 26.9265C41.0856 26.9265 34.0129 34.1353 33.4814 43.0546C33.4814 43.1972 33.4609 44.5208 33.4609 44.6837V54.9267C33.4609 62.9297 39.9613 69.4054 47.9949 69.4054H65.6564C65.8608 69.4054 66.8829 70.3014 67.0259 70.444L70.8894 74.2927C71.6253 75.0258 76.5313 78.1822 76.5926 77.164C76.6335 77.164 76.6539 77.164 76.6948 77.1844C77.2876 77.2455 78.4732 76.5124 78.8616 75.6571C79.434 75.5553 79.9654 69.0389 80.4152 68.7334C86.8747 68.0207 91.9442 62.441 91.9442 55.7006V43.6452C91.9442 43.299 91.8829 40.6924 91.842 40.3666C90.8199 32.9134 85.0963 26.8857 77.4102 26.8857H50.1208V26.9265Z" fill="#EAF2FF"/>
<path opacity="0.8" d="M50.4255 27.8027C41.7379 27.8027 34.9513 34.6857 34.3993 43.2589C34.3993 43.4422 34.3789 44.6436 34.3789 44.8269V54.6626C34.3789 62.462 40.7158 68.7748 48.5449 68.7748H65.3478C65.5931 68.7748 66.5539 69.5893 66.7174 69.7522L70.4991 73.5195C71.3372 74.3545 76.0183 77.0425 76.0796 75.8817C76.1205 75.8817 76.141 75.8817 76.1819 75.8817C76.7133 75.841 77.8376 75.0876 78.2669 74.3341C78.921 74.2323 79.5138 68.3675 80.0453 68.0213C86.0551 67.1864 90.7567 61.9325 90.7567 55.579V43.9309C90.7567 43.5236 90.6953 41.141 90.634 40.7541C89.6119 33.5657 84.011 27.8027 76.5907 27.8027H50.4255Z" fill="#E7F1FF"/>
<path opacity="0.83" d="M50.7528 28.6777C42.4331 28.6777 35.8918 35.2553 35.3603 43.4619C35.3603 43.6655 35.3398 44.7652 35.3398 44.9688V54.3973C35.3398 61.9726 41.5132 68.1225 49.1174 68.1225H65.0823C65.348 68.1225 66.2474 68.8556 66.4519 69.0592L70.1313 72.7247C71.0717 73.6614 75.5279 75.8811 75.6097 74.5778C75.6301 74.5778 75.671 74.5778 75.6914 74.5778C76.1616 74.4353 77.2246 73.6818 77.7152 72.9894C78.451 72.8673 79.1256 67.6948 79.7184 67.3079C85.299 66.3712 89.6121 61.4228 89.6121 55.4562V44.2153C89.6121 43.7673 89.5304 41.568 89.469 41.1404C88.4265 34.2371 82.9891 28.7185 75.8345 28.7185H50.7732L50.7528 28.6777Z" fill="#E4EFFE"/>
<path opacity="0.85" d="M51.0818 29.5332C43.1301 29.5332 36.8341 35.8053 36.3026 43.625C36.3026 43.849 36.2617 44.8468 36.2617 45.0708V54.092C36.2617 61.4637 42.2511 67.4303 49.6509 67.4303H64.7777C65.0843 67.4303 65.9224 68.0819 66.1268 68.3059L69.7245 71.89C70.767 72.9285 74.9984 74.6595 75.0802 73.2136C75.1006 73.2136 75.1211 73.1933 75.162 73.1729C75.5504 72.9285 76.552 72.1751 77.1039 71.5642C77.9216 71.4216 78.6575 66.9212 79.332 66.4936C84.4833 65.455 88.4081 60.8121 88.4081 55.2324V44.3988C88.4081 43.9101 88.3263 41.9144 88.265 41.446C87.2225 34.8278 81.9281 29.5536 75.0189 29.5536H51.0818V29.5332Z" fill="#E1EDFE"/>
<path opacity="0.88" d="M51.4061 30.4092C43.8223 30.4092 37.792 36.3554 37.2401 43.8289C37.2401 44.0733 37.1992 44.949 37.1992 45.1933V53.8072C37.1992 60.9753 43.0251 66.779 50.2205 66.779H64.5091C64.8362 66.779 65.613 67.3695 65.8583 67.5935L69.3538 71.0758C70.5189 72.2365 74.505 73.4787 74.5868 71.8903C74.5868 71.8903 74.6277 71.8496 74.6481 71.8292C74.9752 71.4627 75.9155 70.7296 76.5287 70.1797C77.4282 70.0372 78.2458 66.1884 78.9817 65.7201C83.6833 64.5797 87.2401 60.2218 87.2401 55.0494V44.6231C87.2401 44.0733 87.1583 42.2813 87.0766 41.7722C86.0341 35.4187 80.8623 30.4092 74.2393 30.4092H51.4061Z" fill="#DEEBFE"/>
<path opacity="0.9" d="M51.7138 31.2849C44.4775 31.2849 38.713 36.9257 38.1815 44.0123C38.1815 44.277 38.1406 45.0508 38.1406 45.3156V53.5222C38.1406 60.4662 43.8029 66.107 50.7735 66.107H64.224C64.592 66.107 65.3074 66.6161 65.5527 66.8605L68.9665 70.2612C70.2338 71.5238 73.9951 72.2976 74.0768 70.5667C74.0768 70.5463 74.1177 70.526 74.1177 70.4852C74.3835 70.0169 75.2625 69.2634 75.9166 68.8154C76.8978 68.6525 77.7972 65.4961 78.574 64.9667C82.8463 63.7245 86.0351 59.6721 86.0351 54.8662V44.8472C86.0351 44.2566 85.9534 42.6683 85.8512 42.0981C84.8087 36.0093 79.78 31.2441 73.4023 31.2441H51.6729L51.7138 31.2849Z" fill="#DBE9FE"/>
<path opacity="0.93" d="M52.042 32.1395C45.1736 32.1395 39.6544 37.4748 39.1229 44.1949C39.1025 44.48 39.082 45.152 39.082 45.4371V53.2364C39.082 59.9769 44.5604 65.4344 51.3265 65.4344H63.9389C64.3273 65.4344 64.9815 65.862 65.2676 66.1471L68.5996 69.4664C69.9692 70.8308 73.5056 71.1362 73.6078 69.2424C73.6078 69.222 73.6282 69.1813 73.6487 69.1406C73.8531 68.5704 74.6094 67.6948 75.3862 67.4504C76.3878 67.1042 77.4099 64.7827 78.2685 64.2125C82.1115 62.8685 84.912 59.1216 84.912 54.7026V45.0909C84.912 44.4393 84.8302 43.0545 84.7075 42.4436C83.665 36.6399 78.7795 32.1191 72.647 32.1191H52.042V32.1395Z" fill="#D8E7FE"/>
<path opacity="0.95" d="M52.3701 33.0156C45.8697 33.0156 40.5958 38.0455 40.0643 44.399C40.0439 44.7045 40.0234 45.2747 40.0234 45.5801V52.9722C40.0234 59.509 45.3382 64.8036 51.9 64.8036H63.6743C64.1036 64.8036 64.6964 65.1498 64.9826 65.4552L68.2123 68.6727C69.6841 70.1389 72.7912 69.9352 73.0978 67.9396C73.0978 67.8989 73.0978 67.8581 73.1183 67.8174C73.2409 67.1454 73.9768 66.3105 74.774 66.0865C75.8779 65.781 76.9613 64.0705 77.8812 63.4799C81.2745 62.0341 83.707 58.5722 83.707 54.5606V45.3561C83.707 44.6637 83.6252 43.4826 83.5026 42.831C82.4396 37.292 77.6972 33.036 71.8509 33.036H52.3497L52.3701 33.0156Z" fill="#D5E6FE"/>
<path opacity="0.97" d="M52.6974 33.8711C46.5649 33.8711 41.5567 38.5751 41.0253 44.5621C41.0048 44.8879 40.9844 45.3359 40.9844 45.6821V52.6669C40.9844 58.9797 46.1356 64.1114 52.4725 64.1114H63.4087C63.8585 64.1114 64.3899 64.3761 64.717 64.7019L67.865 67.838C69.439 69.406 72.4235 68.7543 72.6279 66.5754C72.6279 66.5347 72.6279 66.4939 72.6279 66.4329C72.6892 65.659 73.3842 64.8648 74.2223 64.6816C75.4284 64.4168 76.5731 63.3376 77.5543 62.6859C80.5183 61.1383 82.5625 57.9819 82.5625 54.3571V45.5599C82.5625 44.8065 82.4807 43.829 82.3376 43.1366C81.2746 37.8624 76.6753 33.8711 71.0743 33.8711H52.6769H52.6974Z" fill="#D2E4FE"/>
<path d="M70.2947 34.7461H53.0216C46.8892 34.7461 41.9219 39.6945 41.9219 45.8037V52.3812C41.9219 58.4903 46.8892 63.4387 53.0216 63.4387H63.1197C63.6103 63.4387 64.0601 63.622 64.4076 63.9682L67.4738 67.0228C69.1909 68.7333 72.1345 67.5319 72.1345 65.1086C72.1345 64.2329 72.7682 63.4795 73.6471 63.3369C78.0421 62.6242 81.4149 58.8161 81.4149 54.2139V45.824C81.4149 39.7149 76.4476 34.7665 70.3152 34.7665L70.2947 34.7461Z" fill="#CFE2FE"/>
</g>
<g style="mix-blend-mode:screen">
<path d="M53.3502 12H15.6151C7.11145 12 0.222656 18.6997 0.222656 26.9674V45.6818C0.222656 53.9495 7.11145 60.6492 15.5947 60.6492V70.7497C15.5947 72.0122 17.1687 72.6639 18.0886 71.7679L29.4949 60.6696H53.3298C61.8334 60.6696 68.7018 53.9699 68.7018 45.7021V26.9674C68.7018 18.6997 61.813 12 53.3298 12H53.3502Z" fill="#C9D8FA"/>
<path d="M53.328 12.0205H15.6338C7.15052 12.0205 0.261719 18.7406 0.261719 27.0083V45.7227C0.261719 53.9904 7.15052 60.7104 15.6338 60.7104V70.8109C15.6338 72.0735 17.2078 72.7251 18.1276 71.8291L29.5136 60.7104H53.328C61.8112 60.7104 68.7 54.0107 68.7 45.7227V27.0083C68.7 18.7406 61.8112 12.0205 53.328 12.0205Z" fill="#C9D8FA"/>
<path d="M53.33 12.0615H15.6563C7.19349 12.0615 0.304688 18.7612 0.304688 27.0493V45.784C0.304688 54.0721 7.17304 60.7718 15.6563 60.7718V70.8723C15.6563 72.1348 17.2303 72.7865 18.1502 71.8905L29.5361 60.7718H53.33C61.8133 60.7718 68.6816 54.0517 68.6816 45.784V27.0493C68.6816 18.7612 61.7928 12.0615 53.33 12.0615Z" fill="#C9D8FA"/>
<path d="M53.3078 12.0811H15.6953C7.21211 12.0811 0.34375 18.8011 0.34375 27.0688V45.8036C0.34375 54.0916 7.21211 60.7913 15.6749 60.7913V70.8918C15.6749 72.1747 17.2489 72.806 18.1688 71.91L29.5343 60.7913H53.2873C61.7501 60.7913 68.6185 54.0713 68.6185 45.8036V27.0688C68.6389 18.8011 61.7706 12.0811 53.3078 12.0811Z" fill="#C9D8FA"/>
<path d="M53.3089 12.1016H15.717C7.25416 12.1016 0.40625 18.8216 0.40625 27.1097V45.8444C0.40625 54.1325 7.25416 60.8526 15.717 60.8526V70.9734C15.717 72.2563 17.291 72.8876 18.2108 71.9916L29.5763 60.8729H53.3089C61.7717 60.8729 68.6197 54.1529 68.6197 45.8648V27.1097C68.6197 18.8216 61.7717 12.1016 53.3089 12.1016Z" fill="#C9D8FA"/>
<path d="M53.2906 12.1221H15.7395C7.29713 12.1221 0.449219 18.8421 0.449219 27.1506V45.9057C0.449219 54.1937 7.29713 60.9138 15.7599 60.9138V71.0346C15.7599 72.3176 17.3339 72.9488 18.2538 72.0528L29.5989 60.9138H53.311C61.7534 60.9138 68.6217 54.1937 68.6217 45.9057V27.1506C68.6013 18.8421 61.7534 12.1221 53.2906 12.1221Z" fill="#C9D8FA"/>
<path d="M53.2888 12.1631H15.7786C7.31575 12.1631 0.488281 18.8832 0.488281 27.1712V45.9263C0.488281 54.2144 7.3362 60.9345 15.7786 60.9345V71.0553C15.7786 72.3382 17.3525 72.9695 18.2724 72.0735L29.6175 60.9345H53.3092C61.7516 60.9345 68.5995 54.2144 68.5995 45.9263V27.1712C68.5586 18.8832 61.7311 12.1631 53.2888 12.1631Z" fill="#C9D8FA"/>
<path d="M53.2665 12.1836H15.7972C7.35482 12.1836 0.527344 18.9037 0.527344 27.2121V45.9876C0.527344 54.2756 7.35482 61.0161 15.7972 61.0161V71.1369C15.7972 72.4198 17.3712 73.0511 18.291 72.1551L29.6157 61.0161H53.2869C61.7293 61.0161 68.5568 54.296 68.5568 45.9876V27.2121C68.5363 18.9037 61.7089 12.1836 53.2665 12.1836Z" fill="#C9D8FA"/>
<path d="M53.2686 12.2041H15.8197C7.39779 12.2041 0.570312 18.9445 0.570312 27.253V46.0284C0.570312 54.3369 7.39779 61.0569 15.8197 61.0569V71.1981C15.8197 72.481 17.3937 73.1123 18.2931 72.2163L29.5973 61.0773H53.2482C61.6701 61.0773 68.4975 54.3572 68.4975 46.0488V27.253C68.518 18.9445 61.6905 12.2041 53.2686 12.2041Z" fill="#C9D8FA"/>
<path d="M53.2463 12.2441H15.8383C7.43685 12.2441 0.609375 18.9642 0.609375 27.2727V46.0685C0.609375 54.3769 7.43685 61.1173 15.8588 61.1173V71.2585C15.8588 72.5415 17.4328 73.1727 18.3322 72.2767L29.6364 61.1173H53.2463C61.6682 61.1173 68.4957 54.3769 68.4957 46.0685V27.2727C68.4957 18.9642 61.6682 12.2441 53.2463 12.2441Z" fill="#C9D8FA"/>
<path d="M53.2484 12.2646H15.8813C7.45938 12.2646 0.652344 19.0051 0.652344 27.3135V46.1093C0.652344 54.4178 7.45938 61.1582 15.8813 61.1582V71.2994C15.8813 72.5823 17.4348 73.2136 18.3547 72.3176L29.6384 61.1582H53.228C61.6295 61.1582 68.4569 54.4178 68.4569 46.1093V27.3135C68.4569 19.0051 61.6499 12.2646 53.228 12.2646H53.2484Z" fill="#C9D8FA"/>
<path d="M53.2262 12.2852H15.8999C7.49844 12.2852 0.691406 19.0256 0.691406 27.334V46.1502C0.691406 54.4587 7.49844 61.1991 15.8999 61.1991V71.3403C15.8999 72.6232 17.4535 73.2545 18.3733 72.3585L29.6571 61.1991H53.2262C61.6276 61.1991 68.4347 54.4587 68.4347 46.1502V27.334C68.4347 19.0256 61.6276 12.2852 53.2262 12.2852Z" fill="#C9D8FA"/>
<path d="M53.2078 12.3057H15.9224C7.54141 12.3057 0.734375 19.0665 0.734375 27.3749V46.1911C0.734375 54.4995 7.54141 61.2603 15.9224 61.2603V71.4219C15.9224 72.7048 17.476 73.3361 18.3959 72.4401L29.6591 61.2807H53.2078C61.6093 61.2807 68.3959 54.5403 68.3959 46.2114V27.3749C68.3959 19.0665 61.5888 12.3057 53.2078 12.3057Z" fill="#C9D8FA"/>
<path d="M53.206 12.3457H15.9615C7.58047 12.3457 0.773438 19.0861 0.773438 27.4149V46.2515C0.773438 54.5803 7.56003 61.3207 15.9615 61.3207V71.4823C15.9615 72.7652 17.5151 73.3965 18.4349 72.5005L29.6982 61.3207H53.2264C61.6075 61.3207 68.4145 54.5803 68.4145 46.2515V27.4149C68.4145 19.0861 61.6279 12.3457 53.2264 12.3457H53.206Z" fill="#C9D8FA"/>
<path d="M53.1876 12.3662H15.984C7.603 12.3662 0.816406 19.127 0.816406 27.4354V46.272C0.816406 54.6008 7.603 61.3412 15.984 61.3412V71.5028C15.984 72.7857 17.5376 73.417 18.4575 72.521L29.7003 61.3412H53.2081C61.5891 61.3412 68.3757 54.6008 68.3757 46.272V27.4354C68.3757 19.1066 61.5891 12.3662 53.2081 12.3662H53.1876Z" fill="#C9D8FA"/>
<path d="M53.1858 12.3867H16.0027C7.64206 12.3867 0.855469 19.1475 0.855469 27.4763V46.3129C0.855469 54.6417 7.64206 61.4025 16.0027 61.4025V71.564C16.0027 72.8469 17.5562 73.4782 18.4761 72.5822L29.6985 61.4025H53.1654C61.526 61.4025 68.3125 54.6417 68.3125 46.3129V27.4763C68.3125 19.1475 61.526 12.3867 53.1654 12.3867H53.1858Z" fill="#C9D8FA"/>
<path d="M53.1665 12.4277H16.0447C7.68412 12.4277 0.917969 19.1682 0.917969 27.5173V46.3742C0.917969 54.7031 7.68412 61.4639 16.0447 61.4639V71.6458C16.0447 72.9287 17.5983 73.56 18.4977 72.664L29.7201 61.4639H53.1665C61.5271 61.4639 68.2933 54.7031 68.2933 46.3742V27.5173C68.2933 19.1885 61.5271 12.4277 53.1665 12.4277Z" fill="#C9D8FA"/>
<path d="M53.1043 12.4688H16.0438C7.70365 12.4688 0.9375 19.2092 0.9375 27.5176V46.3134C0.9375 54.6219 7.70365 61.3623 16.0438 61.3623V71.5035C16.0438 72.7864 17.536 73.4177 18.4559 72.5217L29.6579 61.3623H53.1248C61.4649 61.3623 68.231 54.6219 68.231 46.3134V27.5176C68.231 19.2092 61.4649 12.4688 53.1248 12.4688H53.1043Z" fill="#BCCBEA"/>
<path d="M53.0655 12.5293H16.0663C7.72618 12.5293 0.980469 19.2494 0.980469 27.5171V46.2518C0.980469 54.5399 7.72618 61.2396 16.0663 61.2396V71.34C16.0663 72.623 17.5177 73.2542 18.4171 72.3582L29.5986 61.2396H53.0655C61.3852 61.2396 68.1514 54.5195 68.1514 46.2518V27.5171C68.1514 19.229 61.4057 12.5293 53.0655 12.5293Z" fill="#B0BDDB"/>
<path d="M53.0024 12.5703H16.0645C7.76524 12.5703 1.01953 19.27 1.01953 27.5377V46.2114C1.01953 54.4587 7.76524 61.1584 16.0645 61.1584V71.2385C16.0645 72.5011 17.4545 73.1527 18.354 72.2363L29.515 61.1584H52.9819C61.3016 61.1584 68.0269 54.4587 68.0269 46.2114V27.5377C68.0269 19.2904 61.2812 12.5907 52.9819 12.5907L53.0024 12.5703Z" fill="#A3B0CB"/>
<path d="M52.9431 12.6309H16.087C7.78777 12.6309 1.0625 19.3102 1.0625 27.5372V46.1497C1.0625 54.3767 7.78777 61.0561 16.087 61.0561V71.0954C16.087 72.358 17.4362 72.9893 18.3356 72.0933L29.4762 61.0357H52.9431C61.2424 61.0357 67.9677 54.3564 67.9677 46.1294V27.5372C67.9677 19.3102 61.2424 12.6309 52.9431 12.6309Z" fill="#97A2BB"/>
<path d="M52.88 12.6924H16.0852C7.80639 12.6924 1.10156 19.331 1.10156 27.5376V46.0891C1.10156 54.2957 7.80639 60.9343 16.0852 60.9343V70.9533C16.0852 72.2159 17.373 72.8471 18.2725 71.9511L29.3927 60.9343H52.88C61.1588 60.9343 67.8636 54.2753 67.8636 46.0891V27.5376C67.8636 19.331 61.1588 12.6924 52.88 12.6924Z" fill="#8A95AC"/>
<path d="M52.8177 12.7334H16.1047C7.82592 12.7334 1.12109 19.372 1.12109 27.5379V46.0283C1.12109 54.2145 7.82592 60.8328 16.0843 60.8328V70.811C16.0843 72.0736 17.3312 72.7049 18.2307 71.8089L29.3304 60.8328H52.8177C61.0761 60.8328 67.781 54.1942 67.781 46.0283V27.5379C67.781 19.3516 61.0761 12.7334 52.8177 12.7334Z" fill="#7E879C"/>
<path d="M52.7585 12.7939H16.1068C7.84844 12.7939 1.16406 19.3918 1.16406 27.5577V46.0074C1.16406 54.1529 7.84844 60.7711 16.1068 60.7711V70.729C16.1068 71.9916 17.2924 72.6025 18.1919 71.7269L29.2712 60.7915H52.7585C61.0169 60.7915 67.7013 54.1733 67.7013 46.0277V27.5577C67.7013 19.4122 61.0169 12.7939 52.7585 12.7939Z" fill="#717A8D"/>
<path d="M52.6954 12.835H16.105C7.88751 12.835 1.20312 19.4328 1.20312 27.558V45.9466C1.20312 54.0717 7.88751 60.6696 16.105 60.6696V70.5868C16.105 71.829 17.2293 72.4603 18.1287 71.5846L29.1876 60.6696H52.6954C60.9333 60.6696 67.5972 54.0921 67.5972 45.9466V27.558C67.5972 19.4328 60.9129 12.835 52.6954 12.835Z" fill="#656C7D"/>
<path d="M52.6361 12.8965H16.1275C7.91004 12.8965 1.24609 19.474 1.24609 27.5584V45.8859C1.24609 53.9907 7.91004 60.5478 16.1275 60.5478V70.4447C16.1275 71.6869 17.2109 72.3181 18.1104 71.4425L29.1488 60.5682H52.6566C60.8741 60.5682 67.538 54.0111 67.538 45.9063V27.5584C67.538 19.4536 60.8741 12.8965 52.6566 12.8965H52.6361Z" fill="#585F6D"/>
<path d="M52.573 12.957H16.1257C7.92866 12.957 1.28516 19.4938 1.28516 27.5783V45.8446C1.28516 53.9087 7.92866 60.4659 16.1462 60.4659V70.322C16.1462 71.5641 17.1682 72.1751 18.0677 71.2994L29.0856 60.4659H52.5934C60.7905 60.4659 67.4544 53.9291 67.4544 45.8446V27.5783C67.4544 19.5142 60.8109 12.957 52.5934 12.957H52.573Z" fill="#4B515E"/>
<path d="M52.5342 12.998H16.1482C7.95118 12.998 1.32812 19.5348 1.32812 27.5786V45.7838C1.32812 53.8275 7.97163 60.3643 16.1482 60.3643V70.1797C16.1482 71.4219 17.1294 72.0328 18.0084 71.1572L29.006 60.344H52.5342C60.7312 60.344 67.3543 53.8275 67.3543 45.7635V27.5786C67.3543 19.5348 60.7108 12.998 52.5342 12.998Z" fill="#3F444E"/>
<path d="M52.4719 13.0586H16.1473C7.97071 13.0586 1.34766 19.5547 1.34766 27.578V45.7222C1.34766 53.7455 7.97071 60.2416 16.1473 60.2416V70.0366C16.1473 71.2788 17.0672 71.8897 17.9666 71.0141L28.9437 60.2416H52.4719C60.6486 60.2416 67.2716 53.7455 67.2716 45.7222V27.578C67.2716 19.5547 60.6486 13.0586 52.4719 13.0586Z" fill="#32363F"/>
<path d="M52.4088 13.0996H16.1659C8.00978 13.0996 1.38672 19.5957 1.38672 27.5783V45.6614C1.38672 53.6644 8.00978 60.1401 16.1659 60.1401V69.8943C16.1659 71.1162 17.0449 71.7474 17.9239 70.8718L28.8806 60.1401H52.4088C60.565 60.1401 67.188 53.6644 67.188 45.6614V27.5783C67.188 19.5753 60.565 13.0996 52.4088 13.0996Z" fill="#26292F"/>
<path d="M52.3496 13.1611H16.168C8.0323 13.1611 1.42969 19.6165 1.42969 27.5991V45.6211C1.42969 53.5833 8.0323 60.059 16.168 60.059V69.7929C16.168 71.0148 16.9857 71.6257 17.8647 70.7704L28.8009 60.0794H52.3496C60.4853 60.0794 67.0879 53.6241 67.0879 45.6414V27.5991C67.0879 19.6368 60.4853 13.1611 52.3496 13.1611Z" fill="#191B1F"/>
<path d="M52.2864 13.2217H16.1867C8.05093 13.2217 1.46875 19.6567 1.46875 27.5985V45.5594C1.46875 53.5013 8.05093 59.9363 16.1867 59.9363V69.6295C16.1867 70.8513 16.943 71.4622 17.8424 70.607L28.7582 59.9363H52.3069C60.4426 59.9363 67.0248 53.5013 67.0248 45.5594V27.5985C67.0248 19.6567 60.4426 13.2217 52.3069 13.2217H52.2864Z" fill="#0D0E10"/>
<path d="M52.2272 13.2627H16.1887C8.07345 13.2627 1.51172 19.6773 1.51172 27.5988V45.4986C1.51172 53.4202 8.09389 59.8348 16.1887 59.8348V69.5076C16.1887 70.7294 16.9042 71.3403 17.7832 70.4647L28.6785 59.8348H52.2272C60.3425 59.8348 66.9042 53.4202 66.9042 45.4986V27.5988C66.9042 19.6773 60.322 13.2627 52.2272 13.2627Z" fill="black"/>
</g>
<g style="mix-blend-mode:screen">
<path d="M52.9215 12H16.045C7.72527 12 1 18.6997 1 26.9674V45.6818C1 53.9495 7.72527 60.6492 16.0245 60.6492V70.7497C16.0245 72.0122 17.5576 72.6639 18.4775 71.7679L29.6182 60.6696H52.9011C61.2003 60.6696 67.9256 53.9699 67.9256 45.7021V26.9674C67.9256 18.6997 61.2003 12 52.9011 12H52.9215Z" fill="#4A5E97"/>
<path opacity="0.96" d="M52.9215 12.835H16.045C7.72527 12.835 1 19.5347 1 27.8024V46.5167C1 54.7845 7.72527 61.4842 16.0245 61.4842V71.5846C16.0245 72.8472 17.5576 73.4988 18.4775 72.6028L29.6182 61.5045H52.9011C61.2003 61.5045 67.9256 54.8048 67.9256 46.5371V27.8024C67.9256 19.5347 61.2003 12.835 52.9011 12.835H52.9215Z" fill="#45588E"/>
<path opacity="0.93" d="M52.9215 13.6699H16.045C7.72527 13.6699 1 20.39 1 28.6577V47.3721C1 55.6398 7.72527 62.3395 16.0245 62.3395V72.4399C16.0245 73.7025 17.5576 74.3541 18.4775 73.4581L29.6182 62.3598H52.9011C61.2003 62.3598 67.9256 55.6601 67.9256 47.3924V28.6781C67.9256 20.4103 61.2003 13.7106 52.9011 13.7106L52.9215 13.6699Z" fill="#415284"/>
<path opacity="0.89" d="M52.9215 14.5049H16.045C7.72527 14.5049 1 21.2249 1 29.4927V48.207C1 56.4747 7.72527 63.1744 16.0245 63.1744V73.2749C16.0245 74.5375 17.5576 75.1891 18.4775 74.2931L29.6182 63.1948H52.9011C61.2003 63.1948 67.9256 56.4951 67.9256 48.2274V29.513C67.9256 21.2453 61.2003 14.5456 52.9011 14.5456L52.9215 14.5049Z" fill="#3C4C7B"/>
<path opacity="0.85" d="M52.9215 15.3604H16.045C7.72527 15.3604 1 22.0601 1 30.3278V49.0421C1 57.3099 7.72527 64.0096 16.0245 64.0096V74.11C16.0245 75.3726 17.5576 76.0242 18.4775 75.1282L29.6182 64.0299H52.9011C61.2003 64.0299 67.9256 57.3302 67.9256 49.0625V30.3481C67.9256 22.0804 61.2003 15.3807 52.9011 15.3807L52.9215 15.3604Z" fill="#384771"/>
<path opacity="0.81" d="M52.9215 16.1953H16.045C7.72527 16.1953 1 22.895 1 31.1627V49.8771C1 58.1448 7.72527 64.8445 16.0245 64.8445V74.945C16.0245 76.2075 17.5576 76.8592 18.4775 75.9632L29.6182 64.8649H52.9011C61.2003 64.8649 67.9256 58.1652 67.9256 49.8975V31.1831C67.9256 22.9154 61.2003 16.2157 52.9011 16.2157L52.9215 16.1953Z" fill="#334168"/>
<path opacity="0.78" d="M52.9215 17.0303H16.045C7.72527 17.0303 1 23.73 1 31.9977V50.7121C1 58.9798 7.72527 65.6795 16.0245 65.6795V75.7799C16.0245 77.0425 17.5576 77.6941 18.4775 76.7981L29.6182 65.6998H52.9011C61.2003 65.6998 67.9256 59.0001 67.9256 50.7324V32.0181C67.9256 23.7503 61.2003 17.0506 52.9011 17.0506L52.9215 17.0303Z" fill="#2E3B5E"/>
<path opacity="0.74" d="M52.9215 17.8652H16.045C7.72527 17.8652 1 24.5649 1 32.8327V51.547C1 59.8147 7.72527 66.5144 16.0245 66.5144V76.6149C16.0245 77.8774 17.5576 78.5291 18.4775 77.6331L29.6182 66.5348H52.9011C61.2003 66.5348 67.9256 59.8351 67.9256 51.5674V32.853C67.9256 24.5853 61.2003 17.8856 52.9011 17.8856L52.9215 17.8652Z" fill="#2A3555"/>
<path opacity="0.7" d="M52.9215 18.6992H16.045C7.72527 18.6992 1 25.3989 1 33.6666V52.381C1 60.6487 7.72527 67.3484 16.0245 67.3484V77.4489C16.0245 78.7114 17.5576 79.3631 18.4775 78.4671L29.6182 67.3688H52.9011C61.2003 67.3688 67.9256 60.6691 67.9256 52.4014V33.687C67.9256 25.4193 61.2003 18.7196 52.9011 18.7196L52.9215 18.6992Z" fill="#252F4C"/>
<path opacity="0.66" d="M52.9215 19.5342H16.045C7.72527 19.5342 1 26.2542 1 34.522V53.2363C1 61.504 7.72527 68.2037 16.0245 68.2037V78.3042C16.0245 79.5668 17.5576 80.2184 18.4775 79.3224L29.6182 68.2241H52.9011C61.2003 68.2241 67.9256 61.5244 67.9256 53.2567V34.5423C67.9256 26.2746 61.2003 19.5749 52.9011 19.5749L52.9215 19.5342Z" fill="#202942"/>
<path opacity="0.62" d="M52.9215 20.3691H16.045C7.72527 20.3691 1 27.0892 1 35.3569V54.0713C1 62.339 7.72527 69.0387 16.0245 69.0387V79.1392C16.0245 80.4017 17.5576 81.0534 18.4775 80.1574L29.6182 69.0591H52.9011C61.2003 69.0591 67.9256 62.3594 67.9256 54.0916V35.3773C67.9256 27.1096 61.2003 20.4099 52.9011 20.4099L52.9215 20.3691Z" fill="#1C2339"/>
<path opacity="0.59" d="M52.9215 21.2246H16.045C7.72527 21.2246 1 27.9243 1 36.192V54.9064C1 63.1741 7.72527 69.8738 16.0245 69.8738V79.9743C16.0245 81.2368 17.5576 81.8885 18.4775 80.9925L29.6182 69.8942H52.9011C61.2003 69.8942 67.9256 63.1945 67.9256 54.9268V36.2124C67.9256 27.9447 61.2003 21.245 52.9011 21.245L52.9215 21.2246Z" fill="#171D2F"/>
<path opacity="0.55" d="M52.9215 22.0596H16.045C7.72527 22.0596 1 28.7593 1 37.027V55.7413C1 64.0091 7.72527 70.7088 16.0245 70.7088V80.8092C16.0245 82.0718 17.5576 82.7234 18.4775 81.8274L29.6182 70.7291H52.9011C61.2003 70.7291 67.9256 64.0294 67.9256 55.7617V37.0474C67.9256 28.7796 61.2003 22.0799 52.9011 22.0799L52.9215 22.0596Z" fill="#131826"/>
<path opacity="0.51" d="M52.9215 22.8945H16.045C7.72527 22.8945 1 29.5942 1 37.8619V56.5763C1 64.844 7.72527 71.5437 16.0245 71.5437V81.6442C16.0245 82.9067 17.5576 83.5584 18.4775 82.6624L29.6182 71.5641H52.9011C61.2003 71.5641 67.9256 64.8644 67.9256 56.5967V37.8823C67.9256 29.6146 61.2003 22.9149 52.9011 22.9149L52.9215 22.8945Z" fill="#0E121C"/>
<path opacity="0.48" d="M52.9215 23.7295H16.045C7.72527 23.7295 1 30.4292 1 38.6969V57.4113C1 65.679 7.72527 72.3787 16.0245 72.3787V82.4792C16.0245 83.7417 17.5576 84.3934 18.4775 83.4973L29.6182 72.3991H52.9011C61.2003 72.3991 67.9256 65.6994 67.9256 57.4316V38.7173C67.9256 30.4496 61.2003 23.7499 52.9011 23.7499L52.9215 23.7295Z" fill="#090C13"/>
<path opacity="0.44" d="M52.9215 24.5645H16.045C7.72527 24.5645 1 31.2642 1 39.5522V58.2666C1 66.5343 7.72527 73.234 16.0245 73.234V83.3345C16.0245 84.597 17.5576 85.2487 18.4775 84.3527L29.6182 73.2544H52.9011C61.2003 73.2544 67.9256 66.5547 67.9256 58.287V39.5726C67.9256 31.3049 61.2003 24.6052 52.9011 24.6052L52.9215 24.5645Z" fill="#050609"/>
<path opacity="0.4" d="M52.9215 25.3994H16.045C7.72527 25.3994 1 32.1195 1 40.3872V59.1016C1 67.3693 7.72527 74.069 16.0245 74.069V84.1694C16.0245 85.432 17.5576 86.0836 18.4775 85.1876L29.6182 74.0893H52.9011C61.2003 74.0893 67.9256 67.3896 67.9256 59.1219V40.4076C67.9256 32.1398 61.2003 25.4401 52.9011 25.4401L52.9215 25.3994Z" fill="black"/>
</g>
</g>
<g style="mix-blend-mode:multiply">
<path opacity="0.4" d="M19.3157 44.7862C22.2623 44.7862 24.651 42.4066 24.651 39.4712C24.651 36.5358 22.2623 34.1562 19.3157 34.1562C16.3691 34.1562 13.9805 36.5358 13.9805 39.4712C13.9805 42.4066 16.3691 44.7862 19.3157 44.7862Z" fill="white"/>
<path opacity="0.44" d="M19.3153 44.5622C22.1603 44.5622 24.4666 42.2647 24.4666 39.4305C24.4666 36.5964 22.1603 34.2988 19.3153 34.2988C16.4704 34.2988 14.1641 36.5964 14.1641 39.4305C14.1641 42.2647 16.4704 44.5622 19.3153 44.5622Z" fill="#FDFDFE"/>
<path opacity="0.48" d="M19.314 44.3385C22.0461 44.3385 24.2609 42.1322 24.2609 39.4105C24.2609 36.6888 22.0461 34.4824 19.314 34.4824C16.582 34.4824 14.3672 36.6888 14.3672 39.4105C14.3672 42.1322 16.582 44.3385 19.314 44.3385Z" fill="#FAFBFE"/>
<path opacity="0.51" d="M19.3167 44.1139C21.9358 44.1139 24.0591 41.9987 24.0591 39.3894C24.0591 36.7802 21.9358 34.665 19.3167 34.665C16.6975 34.665 14.5742 36.7802 14.5742 39.3894C14.5742 41.9987 16.6975 44.1139 19.3167 44.1139Z" fill="#F8F9FD"/>
<path opacity="0.55" d="M19.3163 43.8899C21.8338 43.8899 23.8747 41.8568 23.8747 39.3488C23.8747 36.8408 21.8338 34.8076 19.3163 34.8076C16.7987 34.8076 14.7578 36.8408 14.7578 39.3488C14.7578 41.8568 16.7987 43.8899 19.3163 43.8899Z" fill="#F6F7FD"/>
<path opacity="0.59" d="M19.315 43.6662C21.7197 43.6662 23.669 41.7242 23.669 39.3287C23.669 36.9332 21.7197 34.9912 19.315 34.9912C16.9103 34.9912 14.9609 36.9332 14.9609 39.3287C14.9609 41.7242 16.9103 43.6662 19.315 43.6662Z" fill="#F3F5FC"/>
<path opacity="0.62" d="M19.3176 43.4425C21.6094 43.4425 23.4672 41.5917 23.4672 39.3087C23.4672 37.0256 21.6094 35.1748 19.3176 35.1748C17.0258 35.1748 15.168 37.0256 15.168 39.3087C15.168 41.5917 17.0258 43.4425 19.3176 43.4425Z" fill="#F1F3FC"/>
<path opacity="0.66" d="M19.3172 43.2186C21.5074 43.2186 23.2829 41.4498 23.2829 39.268C23.2829 37.0861 21.5074 35.3174 19.3172 35.3174C17.127 35.3174 15.3516 37.0861 15.3516 39.268C15.3516 41.4498 17.127 43.2186 19.3172 43.2186Z" fill="#EEF1FB"/>
<path opacity="0.7" d="M19.3159 42.9939C21.3932 42.9939 23.0772 41.3163 23.0772 39.2469C23.0772 37.1776 21.3932 35.5 19.3159 35.5C17.2387 35.5 15.5547 37.1776 15.5547 39.2469C15.5547 41.3163 17.2387 42.9939 19.3159 42.9939Z" fill="#ECEFFB"/>
<path opacity="0.74" d="M19.3146 42.7497C21.279 42.7497 22.8715 41.1633 22.8715 39.2064C22.8715 37.2495 21.279 35.6631 19.3146 35.6631C17.3503 35.6631 15.7578 37.2495 15.7578 39.2064C15.7578 41.1633 17.3503 42.7497 19.3146 42.7497Z" fill="#EAEDFA"/>
<path opacity="0.78" d="M19.3173 42.526C21.1687 42.526 22.6697 41.0308 22.6697 39.1863C22.6697 37.3419 21.1687 35.8467 19.3173 35.8467C17.4658 35.8467 15.9648 37.3419 15.9648 39.1863C15.9648 41.0308 17.4658 42.526 19.3173 42.526Z" fill="#E7EBF9"/>
<path opacity="0.81" d="M19.3169 42.3226C21.0668 42.3226 22.4853 40.9094 22.4853 39.1662C22.4853 37.4229 21.0668 36.0098 19.3169 36.0098C17.567 36.0098 16.1484 37.4229 16.1484 39.1662C16.1484 40.9094 17.567 42.3226 19.3169 42.3226Z" fill="#E5E9F9"/>
<path opacity="0.85" d="M19.3156 42.0774C20.9526 42.0774 22.2796 40.7554 22.2796 39.1246C22.2796 37.4939 20.9526 36.1719 19.3156 36.1719C17.6786 36.1719 16.3516 37.4939 16.3516 39.1246C16.3516 40.7554 17.6786 42.0774 19.3156 42.0774Z" fill="#E3E7F8"/>
<path opacity="0.89" d="M19.3143 41.8537C20.8384 41.8537 22.0739 40.6229 22.0739 39.1046C22.0739 37.5863 20.8384 36.3555 19.3143 36.3555C17.7902 36.3555 16.5547 37.5863 16.5547 39.1046C16.5547 40.6229 17.7902 41.8537 19.3143 41.8537Z" fill="#E0E5F8"/>
<path opacity="0.93" d="M19.3139 41.6502C20.7364 41.6502 21.8895 40.5015 21.8895 39.0844C21.8895 37.6673 20.7364 36.5186 19.3139 36.5186C17.8914 36.5186 16.7383 37.6673 16.7383 39.0844C16.7383 40.5015 17.8914 41.6502 19.3139 41.6502Z" fill="#DEE3F7"/>
<path opacity="0.96" d="M19.3165 41.406C20.6261 41.406 21.6877 40.3485 21.6877 39.0438C21.6877 37.7392 20.6261 36.6816 19.3165 36.6816C18.0069 36.6816 16.9453 37.7392 16.9453 39.0438C16.9453 40.3485 18.0069 41.406 19.3165 41.406Z" fill="#DBE1F7"/>
<path d="M19.3152 41.1814C20.5119 41.1814 21.482 40.215 21.482 39.0228C21.482 37.8307 20.5119 36.8643 19.3152 36.8643C18.1185 36.8643 17.1484 37.8307 17.1484 39.0228C17.1484 40.215 18.1185 41.1814 19.3152 41.1814Z" fill="#D9DFF6"/>
</g>
<g style="mix-blend-mode:multiply">
<path opacity="0.4" d="M34.9954 45.295C37.942 45.295 40.3306 42.9154 40.3306 39.98C40.3306 37.0446 37.942 34.665 34.9954 34.665C32.0488 34.665 29.6602 37.0446 29.6602 39.98C29.6602 42.9154 32.0488 45.295 34.9954 45.295Z" fill="white"/>
<path opacity="0.44" d="M34.995 45.071C37.84 45.071 40.1463 42.7735 40.1463 39.9393C40.1463 37.1052 37.84 34.8076 34.995 34.8076C32.15 34.8076 29.8438 37.1052 29.8438 39.9393C29.8438 42.7735 32.15 45.071 34.995 45.071Z" fill="#FDFDFE"/>
<path opacity="0.48" d="M34.9937 44.8473C37.7258 44.8473 39.9406 42.6409 39.9406 39.9193C39.9406 37.1976 37.7258 34.9912 34.9937 34.9912C32.2617 34.9912 30.0469 37.1976 30.0469 39.9193C30.0469 42.6409 32.2617 44.8473 34.9937 44.8473Z" fill="#FAFBFE"/>
<path opacity="0.51" d="M34.9963 44.6226C37.6155 44.6226 39.7388 42.5075 39.7388 39.8982C39.7388 37.289 37.6155 35.1738 34.9963 35.1738C32.3772 35.1738 30.2539 37.289 30.2539 39.8982C30.2539 42.5075 32.3772 44.6226 34.9963 44.6226Z" fill="#F8F9FD"/>
<path opacity="0.55" d="M34.996 44.3987C37.5135 44.3987 39.5544 42.3655 39.5544 39.8575C39.5544 37.3495 37.5135 35.3164 34.996 35.3164C32.4784 35.3164 30.4375 37.3495 30.4375 39.8575C30.4375 42.3655 32.4784 44.3987 34.996 44.3987Z" fill="#F6F7FD"/>
<path opacity="0.59" d="M34.9947 44.175C37.3993 44.175 39.3487 42.233 39.3487 39.8375C39.3487 37.442 37.3993 35.5 34.9947 35.5C32.59 35.5 30.6406 37.442 30.6406 39.8375C30.6406 42.233 32.59 44.175 34.9947 44.175Z" fill="#F3F5FC"/>
<path opacity="0.62" d="M34.9973 43.9513C37.2891 43.9513 39.1469 42.1005 39.1469 39.8175C39.1469 37.5344 37.2891 35.6836 34.9973 35.6836C32.7055 35.6836 30.8477 37.5344 30.8477 39.8175C30.8477 42.1005 32.7055 43.9513 34.9973 43.9513Z" fill="#F1F3FC"/>
<path opacity="0.66" d="M34.9969 43.7273C37.1871 43.7273 38.9626 41.9586 38.9626 39.7768C38.9626 37.5949 37.1871 35.8262 34.9969 35.8262C32.8067 35.8262 31.0312 37.5949 31.0312 39.7768C31.0312 41.9586 32.8067 43.7273 34.9969 43.7273Z" fill="#EEF1FB"/>
<path opacity="0.7" d="M34.9956 43.5027C37.0729 43.5027 38.7569 41.8251 38.7569 39.7557C38.7569 37.6864 37.0729 36.0088 34.9956 36.0088C32.9183 36.0088 31.2344 37.6864 31.2344 39.7557C31.2344 41.8251 32.9183 43.5027 34.9956 43.5027Z" fill="#ECEFFB"/>
<path opacity="0.74" d="M34.9943 43.2585C36.9587 43.2585 38.5512 41.6721 38.5512 39.7152C38.5512 37.7583 36.9587 36.1719 34.9943 36.1719C33.0299 36.1719 31.4375 37.7583 31.4375 39.7152C31.4375 41.6721 33.0299 43.2585 34.9943 43.2585Z" fill="#EAEDFA"/>
<path opacity="0.78" d="M34.9969 43.0348C36.8484 43.0348 38.3494 41.5396 38.3494 39.6951C38.3494 37.8507 36.8484 36.3555 34.9969 36.3555C33.1455 36.3555 31.6445 37.8507 31.6445 39.6951C31.6445 41.5396 33.1455 43.0348 34.9969 43.0348Z" fill="#E7EBF9"/>
<path opacity="0.81" d="M34.9966 42.8313C36.7464 42.8313 38.165 41.4182 38.165 39.6749C38.165 37.9317 36.7464 36.5186 34.9966 36.5186C33.2467 36.5186 31.8281 37.9317 31.8281 39.6749C31.8281 41.4182 33.2467 42.8313 34.9966 42.8313Z" fill="#E5E9F9"/>
<path opacity="0.85" d="M34.9953 42.5862C36.6323 42.5862 37.9593 41.2642 37.9593 39.6334C37.9593 38.0027 36.6323 36.6807 34.9953 36.6807C33.3583 36.6807 32.0312 38.0027 32.0312 39.6334C32.0312 41.2642 33.3583 42.5862 34.9953 42.5862Z" fill="#E3E7F8"/>
<path opacity="0.89" d="M34.994 42.3625C36.5181 42.3625 37.7536 41.1317 37.7536 39.6134C37.7536 38.0951 36.5181 36.8643 34.994 36.8643C33.4699 36.8643 32.2344 38.0951 32.2344 39.6134C32.2344 41.1317 33.4699 42.3625 34.994 42.3625Z" fill="#E0E5F8"/>
<path opacity="0.93" d="M34.9936 42.159C36.4161 42.159 37.5692 41.0103 37.5692 39.5932C37.5692 38.1761 36.4161 37.0273 34.9936 37.0273C33.5711 37.0273 32.418 38.1761 32.418 39.5932C32.418 41.0103 33.5711 42.159 34.9936 42.159Z" fill="#DEE3F7"/>
<path opacity="0.96" d="M34.9962 41.9148C36.3058 41.9148 37.3674 40.8572 37.3674 39.5526C37.3674 38.248 36.3058 37.1904 34.9962 37.1904C33.6866 37.1904 32.625 38.248 32.625 39.5526C32.625 40.8572 33.6866 41.9148 34.9962 41.9148Z" fill="#DBE1F7"/>
<path d="M34.9949 41.6902C36.1916 41.6902 37.1617 40.7238 37.1617 39.5316C37.1617 38.3395 36.1916 37.373 34.9949 37.373C33.7982 37.373 32.8281 38.3395 32.8281 39.5316C32.8281 40.7238 33.7982 41.6902 34.9949 41.6902Z" fill="#D9DFF6"/>
</g>
<g style="mix-blend-mode:multiply">
<path opacity="0.4" d="M49.7337 44.7862C52.6803 44.7862 55.0689 42.4066 55.0689 39.4712C55.0689 36.5358 52.6803 34.1562 49.7337 34.1562C46.7871 34.1562 44.3984 36.5358 44.3984 39.4712C44.3984 42.4066 46.7871 44.7862 49.7337 44.7862Z" fill="white"/>
<path opacity="0.44" d="M49.7333 44.5622C52.5783 44.5622 54.8846 42.2647 54.8846 39.4305C54.8846 36.5964 52.5783 34.2988 49.7333 34.2988C46.8883 34.2988 44.582 36.5964 44.582 39.4305C44.582 42.2647 46.8883 44.5622 49.7333 44.5622Z" fill="#FDFDFE"/>
<path opacity="0.48" d="M49.732 44.3385C52.4641 44.3385 54.6789 42.1322 54.6789 39.4105C54.6789 36.6888 52.4641 34.4824 49.732 34.4824C46.9999 34.4824 44.7852 36.6888 44.7852 39.4105C44.7852 42.1322 46.9999 44.3385 49.732 44.3385Z" fill="#FAFBFE"/>
<path opacity="0.51" d="M49.7346 44.1139C52.3538 44.1139 54.4771 41.9987 54.4771 39.3894C54.4771 36.7802 52.3538 34.665 49.7346 34.665C47.1154 34.665 44.9922 36.7802 44.9922 39.3894C44.9922 41.9987 47.1154 44.1139 49.7346 44.1139Z" fill="#F8F9FD"/>
<path opacity="0.55" d="M49.7342 43.8899C52.2518 43.8899 54.2927 41.8568 54.2927 39.3488C54.2927 36.8408 52.2518 34.8076 49.7342 34.8076C47.2167 34.8076 45.1758 36.8408 45.1758 39.3488C45.1758 41.8568 47.2167 43.8899 49.7342 43.8899Z" fill="#F6F7FD"/>
<path opacity="0.59" d="M49.733 43.6662C52.1376 43.6662 54.087 41.7242 54.087 39.3287C54.087 36.9332 52.1376 34.9912 49.733 34.9912C47.3283 34.9912 45.3789 36.9332 45.3789 39.3287C45.3789 41.7242 47.3283 43.6662 49.733 43.6662Z" fill="#F3F5FC"/>
<path opacity="0.62" d="M49.7356 43.4425C52.0273 43.4425 53.8852 41.5917 53.8852 39.3087C53.8852 37.0256 52.0273 35.1748 49.7356 35.1748C47.4438 35.1748 45.5859 37.0256 45.5859 39.3087C45.5859 41.5917 47.4438 43.4425 49.7356 43.4425Z" fill="#F1F3FC"/>
<path opacity="0.66" d="M49.7352 43.2186C51.9254 43.2186 53.7008 41.4498 53.7008 39.268C53.7008 37.0861 51.9254 35.3174 49.7352 35.3174C47.545 35.3174 45.7695 37.0861 45.7695 39.268C45.7695 41.4498 47.545 43.2186 49.7352 43.2186Z" fill="#EEF1FB"/>
<path opacity="0.7" d="M49.7339 42.9939C51.8112 42.9939 53.4951 41.3163 53.4951 39.2469C53.4951 37.1776 51.8112 35.5 49.7339 35.5C47.6566 35.5 45.9727 37.1776 45.9727 39.2469C45.9727 41.3163 47.6566 42.9939 49.7339 42.9939Z" fill="#ECEFFB"/>
<path opacity="0.74" d="M49.7326 42.7497C51.697 42.7497 53.2894 41.1633 53.2894 39.2064C53.2894 37.2495 51.697 35.6631 49.7326 35.6631C47.7682 35.6631 46.1758 37.2495 46.1758 39.2064C46.1758 41.1633 47.7682 42.7497 49.7326 42.7497Z" fill="#EAEDFA"/>
<path opacity="0.78" d="M49.7352 42.526C51.5867 42.526 53.0876 41.0308 53.0876 39.1863C53.0876 37.3419 51.5867 35.8467 49.7352 35.8467C47.8837 35.8467 46.3828 37.3419 46.3828 39.1863C46.3828 41.0308 47.8837 42.526 49.7352 42.526Z" fill="#E7EBF9"/>
<path opacity="0.81" d="M49.7348 42.3226C51.4847 42.3226 52.9033 40.9094 52.9033 39.1662C52.9033 37.4229 51.4847 36.0098 49.7348 36.0098C47.985 36.0098 46.5664 37.4229 46.5664 39.1662C46.5664 40.9094 47.985 42.3226 49.7348 42.3226Z" fill="#E5E9F9"/>
<path opacity="0.85" d="M49.7336 42.0774C51.3705 42.0774 52.6976 40.7554 52.6976 39.1246C52.6976 37.4939 51.3705 36.1719 49.7336 36.1719C48.0966 36.1719 46.7695 37.4939 46.7695 39.1246C46.7695 40.7554 48.0966 42.0774 49.7336 42.0774Z" fill="#E3E7F8"/>
<path opacity="0.89" d="M49.7323 41.8537C51.2564 41.8537 52.4919 40.6229 52.4919 39.1046C52.4919 37.5863 51.2564 36.3555 49.7323 36.3555C48.2082 36.3555 46.9727 37.5863 46.9727 39.1046C46.9727 40.6229 48.2082 41.8537 49.7323 41.8537Z" fill="#E0E5F8"/>
<path opacity="0.93" d="M49.7319 41.6502C51.1544 41.6502 52.3075 40.5015 52.3075 39.0844C52.3075 37.6673 51.1544 36.5186 49.7319 36.5186C48.3094 36.5186 47.1562 37.6673 47.1562 39.0844C47.1562 40.5015 48.3094 41.6502 49.7319 41.6502Z" fill="#DEE3F7"/>
<path opacity="0.96" d="M49.7345 41.406C51.0441 41.406 52.1057 40.3485 52.1057 39.0438C52.1057 37.7392 51.0441 36.6816 49.7345 36.6816C48.4249 36.6816 47.3633 37.7392 47.3633 39.0438C47.3633 40.3485 48.4249 41.406 49.7345 41.406Z" fill="#DBE1F7"/>
<path d="M49.7332 41.1814C50.9299 41.1814 51.9 40.215 51.9 39.0228C51.9 37.8307 50.9299 36.8643 49.7332 36.8643C48.5365 36.8643 47.5664 37.8307 47.5664 39.0228C47.5664 40.215 48.5365 41.1814 49.7332 41.1814Z" fill="#D9DFF6"/>
</g>
<path d="M20.2337 41.1C22.0174 41.1 23.4634 39.6595 23.4634 37.8825C23.4634 36.1056 22.0174 34.665 20.2337 34.665C18.4499 34.665 17.0039 36.1056 17.0039 37.8825C17.0039 39.6595 18.4499 41.1 20.2337 41.1Z" fill="white"/>
<path d="M35.0774 41.1C36.8612 41.1 38.3072 39.6595 38.3072 37.8825C38.3072 36.1056 36.8612 34.665 35.0774 34.665C33.2937 34.665 31.8477 36.1056 31.8477 37.8825C31.8477 39.6595 33.2937 41.1 35.0774 41.1Z" fill="white"/>
<path d="M49.6321 40.5912C51.4159 40.5912 52.8619 39.1507 52.8619 37.3737C52.8619 35.5968 51.4159 34.1562 49.6321 34.1562C47.8484 34.1562 46.4023 35.5968 46.4023 37.3737C46.4023 39.1507 47.8484 40.5912 49.6321 40.5912Z" fill="white"/>
<defs>
<linearGradient id="paint0_linear_466_1679" x1="71.7879" y1="26.0107" x2="55.9062" y2="64.4394" gradientUnits="userSpaceOnUse">
<stop stop-color="#529DFF"/>
<stop offset="1" stop-color="#2957ED"/>
</linearGradient>
<linearGradient id="paint1_linear_466_1679" x1="12.9174" y1="17.1113" x2="65.5984" y2="69.9728" gradientUnits="userSpaceOnUse">
<stop stop-color="#F0F5FA"/>
<stop offset="0.38" stop-color="#D1E0FD"/>
<stop offset="0.5" stop-color="#C7D9FF"/>
<stop offset="1" stop-color="#AAC3FF"/>
</linearGradient>
</defs>
</svg>
