<svg width="62" height="62" viewBox="0 0 62 62" fill="none" xmlns="http://www.w3.org/2000/svg">
<circle cx="31" cy="31" r="31" fill="white"/>
<g clip-path="url(#clip0_466_1474)">
<path d="M33.2533 28.9758V26.3181H31.5284C31.3755 25.6263 31.1004 24.9827 30.7336 24.4003L32.0087 23.1218L30.1354 21.2435L28.8603 22.522C28.2795 22.1542 27.6419 21.8784 26.9476 21.7251V20H24.2969V21.7295C23.607 21.8827 22.9651 22.1586 22.3843 22.5264L21.1048 21.2479L19.2402 23.1218L20.5197 24.4047C20.1528 24.9827 19.8777 25.6307 19.7249 26.3225H18V28.9802H19.7249C19.8777 29.672 20.1485 30.3156 20.5197 30.898L19.3013 32.1196L21.1747 33.9979L22.393 32.7763C22.9738 33.1441 23.6157 33.42 24.3057 33.5732V35.3027H26.9563V33.5732C27.6463 33.42 28.2882 33.1441 28.869 32.7763L30.1223 34.0329L31.9956 32.1546L30.7467 30.898C31.1135 30.32 31.3843 29.672 31.5415 28.9802H33.2664L33.2533 28.9758Z" fill="#51A4E4"/>
<path d="M27.4616 27.6446C27.4616 28.6604 26.6406 29.4836 25.6275 29.4836C24.6144 29.4836 23.7891 28.6604 23.7891 27.6446C23.7891 26.6288 24.61 25.8057 25.6275 25.8057C26.645 25.8057 27.4616 26.6288 27.4616 27.6446Z" fill="white"/>
<path d="M30.9332 40.8765L37.1909 33.5995C39.0861 34.4052 41.3612 33.9542 42.7935 32.3123C44.1952 30.701 44.3568 28.4373 43.3699 26.6728L41.0511 29.3349C40.4572 30.018 39.4267 30.0836 38.7498 29.4882C38.0686 28.8927 38.0031 27.8594 38.597 27.1807L40.9157 24.5186C39.0424 23.7699 36.824 24.2384 35.4223 25.8453C33.9944 27.4828 33.8502 29.8078 34.9026 31.5854L28.5664 38.8537" fill="#838383"/>
<path d="M31.4992 40.6662C31.4992 41.9579 30.4556 42.9999 29.1674 42.9999C27.8791 42.9999 26.8398 41.9535 26.8398 40.6662C26.8398 39.379 27.8835 38.3281 29.1674 38.3281C30.4512 38.3281 31.4992 39.3746 31.4992 40.6662Z" fill="#838383"/>
</g>
<defs>
<clipPath id="clip0_466_1474">
<rect width="26" height="23" fill="white" transform="translate(18 20)"/>
</clipPath>
</defs>
</svg>
